G04 ================== begin FILE IDENTIFICATION RECORD ==================*
G04 Layout Name:  SCHEMA_CU_CONECTORI.brd*
G04 Film Name:    SSTOP*
G04 File Format:  Gerber RS274X*
G04 File Origin:  Cadence Allegro 17.2-S025*
G04 Origin Date:  Sun Dec 15 17:23:26 2024*
G04 *
G04 Layer:  USER PART NUMBER/SILKSCREEN_TOP*
G04 Layer:  TOLERANCE/SILKSCREEN_TOP*
G04 Layer:  REF DES/SILKSCREEN_TOP*
G04 Layer:  PACKAGE GEOMETRY/SILKSCREEN_TOP*
G04 Layer:  DEVICE TYPE/SILKSCREEN_TOP*
G04 Layer:  COMPONENT VALUE/SILKSCREEN_TOP*
G04 Layer:  BOARD GEOMETRY/SILKSCREEN_TOP*
G04 *
G04 Offset:    (0.0000 0.0000)*
G04 Mirror:    No*
G04 Mode:      Positive*
G04 Rotation:  0*
G04 FullContactRelief:  No*
G04 UndefLineWidth:     0.1000*
G04 ================== end FILE IDENTIFICATION RECORD ====================*
%FSLAX25Y25*MOMM*%
%IR0*IPPOS*OFA0.00000B0.00000*MIA0B0*SFA1.00000B1.00000*%
%ADD10C,.1*%
%ADD11C,.2*%
%ADD12C,.15*%
%ADD13C,.1524*%
G75*
%LPD*%
G75*
G54D10*
G01X670110Y1805000D02*
Y1868500D01*
X694360D01*
X702450Y1865320D01*
X708510Y1857920D01*
X710530Y1849450D01*
X708510Y1840980D01*
X703460Y1834630D01*
X694360Y1831460D01*
X670110D01*
G01X766200Y1805000D02*
Y1868500D01*
X754070Y1855800D01*
G01Y1805000D02*
X778330D01*
G01X2411120Y469000D02*
Y532500D01*
X2449520D01*
G01X2435370Y501810D02*
X2411120D01*
G01X2506200Y469000D02*
Y532500D01*
G01X2582080Y469000D02*
X2576020Y470060D01*
X2569950Y474290D01*
X2565910Y481700D01*
X2563890Y490170D01*
X2565910Y498630D01*
X2569950Y506040D01*
X2576020Y510270D01*
X2582080Y511330D01*
X2588140Y510270D01*
X2594210Y506040D01*
X2598250Y498630D01*
X2599260Y490170D01*
X2598250Y481700D01*
X2594210Y474290D01*
X2588140Y470060D01*
X2582080Y469000D01*
G01X2643810D02*
Y511330D01*
G01Y502870D02*
X2648860Y507100D01*
X2653920Y510270D01*
X2660990Y511330D01*
X2666040Y510270D01*
X2672110Y507100D01*
G01X2733840Y511330D02*
Y469000D01*
G01Y528270D02*
X2731820Y529320D01*
Y531440D01*
X2733840Y532500D01*
X2735860Y531440D01*
Y529320D01*
X2733840Y528270D01*
G01X2827910Y469000D02*
Y511330D01*
G01Y503930D02*
X2823870Y508160D01*
X2817800Y510270D01*
X2810730Y511330D01*
X2803660Y509220D01*
X2797590Y504980D01*
X2793550Y498630D01*
X2791530Y490170D01*
X2793550Y481700D01*
X2797590Y475350D01*
X2803660Y471120D01*
X2810730Y469000D01*
X2817800Y470060D01*
X2823870Y473230D01*
X2827910Y477460D01*
G01X2868420Y469000D02*
Y511330D01*
G01Y500750D02*
X2872460Y506040D01*
X2878530Y510270D01*
X2886610Y511330D01*
X2893680Y510270D01*
X2899750Y506040D01*
X2902780Y498630D01*
Y469000D01*
G01X3015130D02*
Y532500D01*
X3035340D01*
X3043420Y529320D01*
X3049490Y525090D01*
X3054540Y518740D01*
X3058580Y511330D01*
X3059590Y500750D01*
X3058580Y490170D01*
X3054540Y482760D01*
X3049490Y476410D01*
X3043420Y472170D01*
X3035340Y469000D01*
X3015130D01*
G01X3131430D02*
Y511330D01*
G01Y503930D02*
X3127390Y508160D01*
X3121320Y510270D01*
X3114250Y511330D01*
X3107180Y509220D01*
X3101110Y504980D01*
X3097070Y498630D01*
X3095050Y490170D01*
X3097070Y481700D01*
X3101110Y475350D01*
X3107180Y471120D01*
X3114250Y469000D01*
X3121320Y470060D01*
X3127390Y473230D01*
X3131430Y477460D01*
G01X3170930Y511330D02*
X3189120Y469000D01*
X3207310Y511330D01*
G01X3265000D02*
Y469000D01*
G01Y528270D02*
X3262980Y529320D01*
Y531440D01*
X3265000Y532500D01*
X3267020Y531440D01*
Y529320D01*
X3265000Y528270D01*
G01X3359070Y532500D02*
Y469000D01*
G01Y478520D02*
X3355030Y473230D01*
X3348960Y470060D01*
X3341890Y469000D01*
X3333810Y471120D01*
X3327740Y476410D01*
X3323700Y482760D01*
X3322690Y490170D01*
X3323700Y497570D01*
X3327740Y503930D01*
X3333810Y509220D01*
X3341890Y511330D01*
X3348960Y510270D01*
X3354020Y508160D01*
X3359070Y503930D01*
G01X2450450Y361000D02*
Y424500D01*
X2413050Y378990D01*
X2463590D01*
G01X2491970Y373700D02*
X2498030Y366290D01*
X2506110Y362060D01*
X2515210Y361000D01*
X2523300Y362060D01*
X2531380Y367350D01*
X2536430Y373700D01*
X2537440Y380050D01*
X2535420Y387460D01*
X2528350Y392750D01*
X2521270Y394870D01*
X2512180D01*
G01X2521270D02*
X2527340Y398040D01*
X2532390Y403330D01*
X2534410Y409680D01*
X2532390Y416030D01*
X2527340Y421320D01*
X2518240Y424500D01*
X2509150Y423440D01*
X2500050Y419210D01*
G01X2567850Y373700D02*
X2573910Y366290D01*
X2581990Y362060D01*
X2591090Y361000D01*
X2599180Y362060D01*
X2607260Y367350D01*
X2612310Y373700D01*
X2613320Y380050D01*
X2611300Y387460D01*
X2604230Y392750D01*
X2597150Y394870D01*
X2588060D01*
G01X2597150D02*
X2603220Y398040D01*
X2608270Y403330D01*
X2610290Y409680D01*
X2608270Y416030D01*
X2603220Y421320D01*
X2594120Y424500D01*
X2585030Y423440D01*
X2575930Y419210D01*
G01X2686170Y361000D02*
X2645750D01*
Y424500D01*
X2686170D01*
G01X2670000Y393810D02*
X2645750D01*
G01X2839950Y419210D02*
X2833890Y422380D01*
X2826820Y424500D01*
X2818730D01*
X2809630Y421320D01*
X2802560Y416030D01*
X2797510Y409680D01*
X2793460Y399100D01*
X2792450Y389570D01*
X2794480Y380050D01*
X2797510Y373700D01*
X2803570Y367350D01*
X2810650Y363120D01*
X2817720Y361000D01*
X2824790D01*
X2831870Y363120D01*
X2837930Y366290D01*
X2842990Y370520D01*
G01X2913810Y361000D02*
X2873390D01*
Y424500D01*
X2913810D01*
G01X2897640Y393810D02*
X2873390D01*
G01X2950280Y361000D02*
Y424500D01*
X2988680D01*
G01X2974530Y393810D02*
X2950280D01*
G01X3026160Y413920D02*
X3032220Y420270D01*
X3039300Y423440D01*
X3047380Y424500D01*
X3057490Y422380D01*
X3064560Y417090D01*
X3066580Y410740D01*
X3065570Y404390D01*
X3061530Y399100D01*
X3041320Y388520D01*
X3032220Y381110D01*
X3026160Y370520D01*
X3024140Y361000D01*
X3066580D01*
G01X3183980Y382170D02*
X3210260D01*
G01X3328670Y361000D02*
Y424500D01*
X3352920D01*
X3361010Y421320D01*
X3367070Y413920D01*
X3369090Y405450D01*
X3367070Y396980D01*
X3362020Y390630D01*
X3352920Y387460D01*
X3328670D01*
G01X2477120Y313920D02*
X2483180Y320270D01*
X2490260Y323440D01*
X2498340Y324500D01*
X2508450Y322380D01*
X2515520Y317090D01*
X2517540Y310740D01*
X2516530Y304390D01*
X2512490Y299100D01*
X2492280Y288520D01*
X2483180Y281110D01*
X2477120Y270520D01*
X2475100Y261000D01*
X2517540D01*
G01X2572200Y324500D02*
X2564110Y322380D01*
X2558050Y317090D01*
X2554010Y310740D01*
X2550980Y302270D01*
X2549970Y292750D01*
X2550980Y283220D01*
X2554010Y274760D01*
X2558050Y268410D01*
X2564110Y263120D01*
X2572200Y261000D01*
X2580280Y263120D01*
X2586350Y268410D01*
X2590390Y274760D01*
X2593420Y283220D01*
X2594430Y292750D01*
X2593420Y302270D01*
X2590390Y310740D01*
X2586350Y317090D01*
X2580280Y322380D01*
X2572200Y324500D01*
G01X2628880Y313920D02*
X2634940Y320270D01*
X2642020Y323440D01*
X2650100Y324500D01*
X2660210Y322380D01*
X2667280Y317090D01*
X2669300Y310740D01*
X2668290Y304390D01*
X2664250Y299100D01*
X2644040Y288520D01*
X2634940Y281110D01*
X2628880Y270520D01*
X2626860Y261000D01*
X2669300D01*
G01X2736090D02*
Y324500D01*
X2698690Y278990D01*
X2749230D01*
G01X2862580Y282170D02*
X2888860D01*
G01X3008280Y313920D02*
X3014340Y320270D01*
X3021420Y323440D01*
X3029500Y324500D01*
X3039610Y322380D01*
X3046680Y317090D01*
X3048700Y310740D01*
X3047690Y304390D01*
X3043650Y299100D01*
X3023440Y288520D01*
X3014340Y281110D01*
X3008280Y270520D01*
X3006260Y261000D01*
X3048700D01*
G01X3103360Y324500D02*
X3095270Y322380D01*
X3089210Y317090D01*
X3085170Y310740D01*
X3082140Y302270D01*
X3081130Y292750D01*
X3082140Y283220D01*
X3085170Y274760D01*
X3089210Y268410D01*
X3095270Y263120D01*
X3103360Y261000D01*
X3111440Y263120D01*
X3117510Y268410D01*
X3121550Y274760D01*
X3124580Y283220D01*
X3125590Y292750D01*
X3124580Y302270D01*
X3121550Y310740D01*
X3117510Y317090D01*
X3111440Y322380D01*
X3103360Y324500D01*
G01X3160040Y313920D02*
X3166100Y320270D01*
X3173180Y323440D01*
X3181260Y324500D01*
X3191370Y322380D01*
X3198440Y317090D01*
X3200460Y310740D01*
X3199450Y304390D01*
X3195410Y299100D01*
X3175200Y288520D01*
X3166100Y281110D01*
X3160040Y270520D01*
X3158020Y261000D01*
X3200460D01*
G01X3232890Y270520D02*
X3238950Y265230D01*
X3246020Y262060D01*
X3255120Y261000D01*
X3264220Y263120D01*
X3271290Y267350D01*
X3276340Y274760D01*
X3277350Y283220D01*
X3275330Y291690D01*
X3270280Y296980D01*
X3263200Y301220D01*
X3256130Y302270D01*
X3249060Y301220D01*
X3239960Y296980D01*
X3242990Y324500D01*
X3270280D01*
G01X3395110Y1291000D02*
Y1354500D01*
X3419360D01*
X3427450Y1351320D01*
X3433510Y1343920D01*
X3435530Y1335450D01*
X3433510Y1326980D01*
X3428460Y1320630D01*
X3419360Y1317460D01*
X3395110D01*
G01X3472000Y1343920D02*
X3478060Y1350270D01*
X3485140Y1353440D01*
X3493220Y1354500D01*
X3503330Y1352380D01*
X3510400Y1347090D01*
X3512420Y1340740D01*
X3511410Y1334390D01*
X3507370Y1329100D01*
X3487160Y1318520D01*
X3478060Y1311110D01*
X3472000Y1300520D01*
X3469980Y1291000D01*
X3512420D01*
G01X1149710Y161100D02*
X1161560Y142050D01*
X1175780Y129350D01*
X1192380Y123000D01*
X1211340Y129350D01*
X1225570Y142050D01*
X1239790Y161100D01*
X1244530Y186500D01*
Y313500D01*
G01X1335470Y161100D02*
X1349690Y138870D01*
X1368650Y126170D01*
X1389990Y123000D01*
X1408960Y126170D01*
X1427920Y142050D01*
X1439770Y161100D01*
X1442140Y180150D01*
X1437400Y202370D01*
X1420810Y218250D01*
X1404210Y224600D01*
X1382880D01*
G01X1404210D02*
X1418440Y234120D01*
X1430290Y250000D01*
X1435030Y269050D01*
X1430290Y288100D01*
X1418440Y303970D01*
X1397100Y313500D01*
X1375770Y310330D01*
X1354430Y297620D01*
G01X486710Y695100D02*
X498560Y676050D01*
X512780Y663350D01*
X529380Y657000D01*
X548340Y663350D01*
X562570Y676050D01*
X576790Y695100D01*
X581530Y720500D01*
Y847500D01*
G01X679580Y815750D02*
X693800Y834800D01*
X710400Y844330D01*
X729360Y847500D01*
X753070Y841150D01*
X769660Y825270D01*
X774400Y806230D01*
X772030Y787170D01*
X762550Y771300D01*
X715140Y739550D01*
X693800Y717320D01*
X679580Y685570D01*
X674840Y657000D01*
X774400D01*
G01X1047870Y1111000D02*
Y1238000D01*
X1080040D01*
X1092910Y1231650D01*
X1102560Y1223180D01*
X1110610Y1210490D01*
X1117040Y1195660D01*
X1118650Y1174500D01*
X1117040Y1153330D01*
X1110610Y1138510D01*
X1102560Y1125810D01*
X1092910Y1117350D01*
X1080040Y1111000D01*
X1047870D01*
G01X1182230Y1216830D02*
X1191890Y1229530D01*
X1203150Y1235880D01*
X1216020Y1238000D01*
X1232100Y1233770D01*
X1243370Y1223180D01*
X1246580Y1210490D01*
X1244970Y1197780D01*
X1238540Y1187200D01*
X1206370Y1166030D01*
X1191890Y1151220D01*
X1182230Y1130050D01*
X1179020Y1111000D01*
X1246580D01*
G01X1347260Y843280D02*
X1042460D01*
Y985520D01*
X1347260D01*
Y843280D01*
G01X1136280Y2373740D02*
Y2678540D01*
X1278520D01*
Y2373740D01*
X1136280D01*
G01X684710Y3298100D02*
X696560Y3279050D01*
X710780Y3266350D01*
X727380Y3260000D01*
X746340Y3266350D01*
X760570Y3279050D01*
X774790Y3298100D01*
X779530Y3323500D01*
Y3450500D01*
G01X922620Y3260000D02*
Y3450500D01*
X894170Y3412400D01*
G01Y3260000D02*
X951060D01*
G01X1138260Y3341000D02*
X1125390Y3343120D01*
X1114130Y3351580D01*
X1104480Y3364280D01*
X1098040Y3379100D01*
X1094820Y3396030D01*
Y3412970D01*
X1098040Y3429900D01*
X1104480Y3444720D01*
X1114130Y3457420D01*
X1125390Y3465880D01*
X1138260Y3468000D01*
X1151130Y3465880D01*
X1162390Y3457420D01*
X1172040Y3444720D01*
X1178480Y3429900D01*
X1181700Y3412970D01*
Y3396030D01*
X1178480Y3379100D01*
X1172040Y3364280D01*
X1162390Y3351580D01*
X1151130Y3343120D01*
X1138260Y3341000D01*
G01X1151130Y3374870D02*
X1170430Y3341000D01*
G01X1267800D02*
Y3468000D01*
X1248500Y3442600D01*
G01Y3341000D02*
X1287100D01*
G01X1123280Y2982740D02*
Y3287540D01*
X1265520D01*
Y2982740D01*
X1123280D01*
G01X1542260Y1160000D02*
X1529390Y1162120D01*
X1518130Y1170580D01*
X1508480Y1183280D01*
X1502040Y1198100D01*
X1498820Y1215030D01*
Y1231970D01*
X1502040Y1248900D01*
X1508480Y1263720D01*
X1518130Y1276420D01*
X1529390Y1284880D01*
X1542260Y1287000D01*
X1555130Y1284880D01*
X1566390Y1276420D01*
X1576040Y1263720D01*
X1582480Y1248900D01*
X1585700Y1231970D01*
Y1215030D01*
X1582480Y1198100D01*
X1576040Y1183280D01*
X1566390Y1170580D01*
X1555130Y1162120D01*
X1542260Y1160000D01*
G01X1555130Y1193870D02*
X1574430Y1160000D01*
G01X1668580D02*
X1671800Y1187510D01*
X1676630Y1210800D01*
X1683060Y1231970D01*
X1691100Y1255250D01*
X1703970Y1287000D01*
X1639630D01*
G01X1736740Y1289720D02*
X2041540D01*
Y1147480D01*
X1736740D01*
Y1289720D01*
G01X1550260Y1590000D02*
X1537390Y1592120D01*
X1526130Y1600580D01*
X1516480Y1613280D01*
X1510040Y1628100D01*
X1506820Y1645030D01*
Y1661970D01*
X1510040Y1678900D01*
X1516480Y1693720D01*
X1526130Y1706420D01*
X1537390Y1714880D01*
X1550260Y1717000D01*
X1563130Y1714880D01*
X1574390Y1706420D01*
X1584040Y1693720D01*
X1590480Y1678900D01*
X1593700Y1661970D01*
Y1645030D01*
X1590480Y1628100D01*
X1584040Y1613280D01*
X1574390Y1600580D01*
X1563130Y1592120D01*
X1550260Y1590000D01*
G01X1563130Y1623870D02*
X1582430Y1590000D01*
G01X1649230Y1642910D02*
X1660500Y1657730D01*
X1670150Y1666200D01*
X1683020Y1670430D01*
X1694280Y1666200D01*
X1702320Y1657730D01*
X1708760Y1645030D01*
X1710370Y1630220D01*
X1708760Y1617510D01*
X1702320Y1604810D01*
X1692670Y1594230D01*
X1681410Y1590000D01*
X1668540Y1594230D01*
X1657280Y1606930D01*
X1650840Y1625980D01*
X1649230Y1647150D01*
X1652450Y1674660D01*
X1657280Y1689490D01*
X1665320Y1704300D01*
X1676580Y1714880D01*
X1687840Y1717000D01*
X1699100Y1712770D01*
X1707150Y1702180D01*
G01X1868720Y2059260D02*
Y1754460D01*
X1726480D01*
Y2059260D01*
X1868720D01*
G01X1222260Y1595000D02*
X1209390Y1597120D01*
X1198130Y1605580D01*
X1188480Y1618280D01*
X1182040Y1633100D01*
X1178820Y1650030D01*
Y1666970D01*
X1182040Y1683900D01*
X1188480Y1698720D01*
X1198130Y1711420D01*
X1209390Y1719880D01*
X1222260Y1722000D01*
X1235130Y1719880D01*
X1246390Y1711420D01*
X1256040Y1698720D01*
X1262480Y1683900D01*
X1265700Y1666970D01*
Y1650030D01*
X1262480Y1633100D01*
X1256040Y1618280D01*
X1246390Y1605580D01*
X1235130Y1597120D01*
X1222260Y1595000D01*
G01X1235130Y1628870D02*
X1254430Y1595000D01*
G01X1316410Y1614050D02*
X1326060Y1603460D01*
X1337320Y1597120D01*
X1351800Y1595000D01*
X1366280Y1599230D01*
X1377540Y1607700D01*
X1385580Y1622510D01*
X1387190Y1639450D01*
X1383970Y1656380D01*
X1375930Y1666970D01*
X1364670Y1675430D01*
X1353410Y1677550D01*
X1342150Y1675430D01*
X1327670Y1666970D01*
X1332500Y1722000D01*
X1375930D01*
G01X1300720Y2059260D02*
Y1754460D01*
X1158480D01*
Y2059260D01*
X1300720D01*
G01X1611260Y2225000D02*
X1598390Y2227120D01*
X1587130Y2235580D01*
X1577480Y2248280D01*
X1571040Y2263100D01*
X1567820Y2280030D01*
Y2296970D01*
X1571040Y2313900D01*
X1577480Y2328720D01*
X1587130Y2341420D01*
X1598390Y2349880D01*
X1611260Y2352000D01*
X1624130Y2349880D01*
X1635390Y2341420D01*
X1645040Y2328720D01*
X1651480Y2313900D01*
X1654700Y2296970D01*
Y2280030D01*
X1651480Y2263100D01*
X1645040Y2248280D01*
X1635390Y2235580D01*
X1624130Y2227120D01*
X1611260Y2225000D01*
G01X1624130Y2258870D02*
X1643430Y2225000D01*
G01X1705410Y2250400D02*
X1715060Y2235580D01*
X1727930Y2227120D01*
X1742410Y2225000D01*
X1755280Y2227120D01*
X1768150Y2237700D01*
X1776190Y2250400D01*
X1777800Y2263100D01*
X1774580Y2277910D01*
X1763320Y2288500D01*
X1752060Y2292730D01*
X1737580D01*
G01X1752060D02*
X1761710Y2299080D01*
X1769760Y2309660D01*
X1772970Y2322370D01*
X1769760Y2335070D01*
X1761710Y2345650D01*
X1747230Y2352000D01*
X1732760Y2349880D01*
X1718280Y2341420D01*
G01X1875720Y2682260D02*
Y2377460D01*
X1733480D01*
Y2682260D01*
X1875720D01*
G01X1209940Y2714100D02*
X1197070Y2716220D01*
X1185810Y2724680D01*
X1176160Y2737380D01*
X1169720Y2752200D01*
X1166500Y2769130D01*
Y2786070D01*
X1169720Y2803000D01*
X1176160Y2817820D01*
X1185810Y2830520D01*
X1197070Y2838980D01*
X1209940Y2841100D01*
X1222810Y2838980D01*
X1234070Y2830520D01*
X1243720Y2817820D01*
X1250160Y2803000D01*
X1253380Y2786070D01*
Y2769130D01*
X1250160Y2752200D01*
X1243720Y2737380D01*
X1234070Y2724680D01*
X1222810Y2716220D01*
X1209940Y2714100D01*
G01X1222810Y2747970D02*
X1242110Y2714100D01*
G01X1358780D02*
Y2841100D01*
X1299260Y2750080D01*
X1379700D01*
G01X1600260Y3316000D02*
X1587390Y3318120D01*
X1576130Y3326580D01*
X1566480Y3339280D01*
X1560040Y3354100D01*
X1556820Y3371030D01*
Y3387970D01*
X1560040Y3404900D01*
X1566480Y3419720D01*
X1576130Y3432420D01*
X1587390Y3440880D01*
X1600260Y3443000D01*
X1613130Y3440880D01*
X1624390Y3432420D01*
X1634040Y3419720D01*
X1640480Y3404900D01*
X1643700Y3387970D01*
Y3371030D01*
X1640480Y3354100D01*
X1634040Y3339280D01*
X1624390Y3326580D01*
X1613130Y3318120D01*
X1600260Y3316000D01*
G01X1613130Y3349870D02*
X1632430Y3316000D01*
G01X1699230Y3421830D02*
X1708890Y3434530D01*
X1720150Y3440880D01*
X1733020Y3443000D01*
X1749100Y3438770D01*
X1760370Y3428180D01*
X1763580Y3415490D01*
X1761970Y3402780D01*
X1755540Y3392200D01*
X1723370Y3371030D01*
X1708890Y3356220D01*
X1699230Y3335050D01*
X1696020Y3316000D01*
X1763580D01*
G01X1700280Y2969740D02*
Y3274540D01*
X1842520D01*
Y2969740D01*
X1700280D01*
G01X2012260Y2080000D02*
X1999390Y2082120D01*
X1988130Y2090580D01*
X1978480Y2103280D01*
X1972040Y2118100D01*
X1968820Y2135030D01*
Y2151970D01*
X1972040Y2168900D01*
X1978480Y2183720D01*
X1988130Y2196420D01*
X1999390Y2204880D01*
X2012260Y2207000D01*
X2025130Y2204880D01*
X2036390Y2196420D01*
X2046040Y2183720D01*
X2052480Y2168900D01*
X2055700Y2151970D01*
Y2135030D01*
X2052480Y2118100D01*
X2046040Y2103280D01*
X2036390Y2090580D01*
X2025130Y2082120D01*
X2012260Y2080000D01*
G01X2025130Y2113870D02*
X2044430Y2080000D01*
G01X2114450Y2094810D02*
X2125710Y2084230D01*
X2138580Y2080000D01*
X2151450Y2084230D01*
X2162710Y2096930D01*
X2170760Y2115980D01*
X2173970Y2135030D01*
Y2158320D01*
X2170760Y2177370D01*
X2162710Y2194300D01*
X2153060Y2202770D01*
X2141800Y2207000D01*
X2128930Y2202770D01*
X2119280Y2194300D01*
X2112840Y2181600D01*
X2109630Y2164660D01*
X2112840Y2149850D01*
X2120890Y2135030D01*
X2130540Y2126560D01*
X2141800Y2124450D01*
X2154670Y2128680D01*
X2164320Y2139270D01*
X2173970Y2158320D01*
G01X2395720Y2048260D02*
Y1743460D01*
X2253480D01*
Y2048260D01*
X2395720D01*
G01X2193870Y2798000D02*
Y2925000D01*
X2226040D01*
X2238910Y2918650D01*
X2248560Y2910180D01*
X2256610Y2897490D01*
X2263040Y2882660D01*
X2264650Y2861500D01*
X2263040Y2840330D01*
X2256610Y2825510D01*
X2248560Y2812810D01*
X2238910Y2804350D01*
X2226040Y2798000D01*
X2193870D01*
G01X2378100D02*
Y2925000D01*
X2318580Y2833980D01*
X2399020D01*
G01X2538260Y2479280D02*
X2233460D01*
Y2621520D01*
X2538260D01*
Y2479280D01*
G01X2003870Y3512000D02*
Y3639000D01*
X2036040D01*
X2048910Y3632650D01*
X2058560Y3624180D01*
X2066610Y3611490D01*
X2073040Y3596660D01*
X2074650Y3575500D01*
X2073040Y3554330D01*
X2066610Y3539510D01*
X2058560Y3526810D01*
X2048910Y3518350D01*
X2036040Y3512000D01*
X2003870D01*
G01X2133410Y3537400D02*
X2143060Y3522580D01*
X2155930Y3514120D01*
X2170410Y3512000D01*
X2183280Y3514120D01*
X2196150Y3524700D01*
X2204190Y3537400D01*
X2205800Y3550100D01*
X2202580Y3564910D01*
X2191320Y3575500D01*
X2180060Y3579730D01*
X2165580D01*
G01X2180060D02*
X2189710Y3586080D01*
X2197760Y3596660D01*
X2200970Y3609370D01*
X2197760Y3622070D01*
X2189710Y3632650D01*
X2175230Y3639000D01*
X2160760Y3636880D01*
X2146280Y3628420D01*
G01X2538260Y3408280D02*
X2233460D01*
Y3550520D01*
X2538260D01*
Y3408280D01*
G01X2815260Y2801000D02*
X2802390Y2803120D01*
X2791130Y2811580D01*
X2781480Y2824280D01*
X2775040Y2839100D01*
X2771820Y2856030D01*
Y2872970D01*
X2775040Y2889900D01*
X2781480Y2904720D01*
X2791130Y2917420D01*
X2802390Y2925880D01*
X2815260Y2928000D01*
X2828130Y2925880D01*
X2839390Y2917420D01*
X2849040Y2904720D01*
X2855480Y2889900D01*
X2858700Y2872970D01*
Y2856030D01*
X2855480Y2839100D01*
X2849040Y2824280D01*
X2839390Y2811580D01*
X2828130Y2803120D01*
X2815260Y2801000D01*
G01X2828130Y2834870D02*
X2847430Y2801000D01*
G01X2944800D02*
X2956060Y2803120D01*
X2968930Y2809460D01*
X2976970Y2820050D01*
X2980190Y2834870D01*
X2976970Y2849680D01*
X2967320Y2862380D01*
X2952840Y2868730D01*
X2936760D01*
X2927100Y2872970D01*
X2919060Y2883550D01*
X2915840Y2898370D01*
X2920670Y2913180D01*
X2931930Y2923770D01*
X2944800Y2928000D01*
X2957670Y2923770D01*
X2968930Y2913180D01*
X2973760Y2898370D01*
X2970540Y2883550D01*
X2962500Y2872970D01*
X2952840Y2868730D01*
X2936760D01*
X2922280Y2862380D01*
X2912630Y2849680D01*
X2909410Y2834870D01*
X2912630Y2820050D01*
X2920670Y2809460D01*
X2933540Y2803120D01*
X2944800Y2801000D01*
G01X3019720Y2704260D02*
Y2399460D01*
X2877480D01*
Y2704260D01*
X3019720D01*
G01X3378280Y3483740D02*
Y3788540D01*
X3520520D01*
Y3483740D01*
X3378280D01*
G01X3030870Y3703000D02*
Y3830000D01*
X3063040D01*
X3075910Y3823650D01*
X3085560Y3815180D01*
X3093610Y3802490D01*
X3100040Y3787660D01*
X3101650Y3766500D01*
X3100040Y3745330D01*
X3093610Y3730510D01*
X3085560Y3717810D01*
X3075910Y3709350D01*
X3063040Y3703000D01*
X3030870D01*
G01X3195800D02*
Y3830000D01*
X3176500Y3804600D01*
G01Y3703000D02*
X3215100D01*
G54D11*
G01X320000Y1398500D02*
G03X470000Y1248500I150000J0D01*
G03X620000Y1403500I0J150081D01*
G03X470000Y1548500I-149834J-4915D01*
G03X320000Y1398500I0J-150000D01*
G01X330000Y1148500D02*
X220000D01*
Y1648500D01*
X250000D01*
G01X355000Y1398500D02*
X580000D01*
G01X401000Y2792000D02*
Y2682000D01*
G01Y2939000D02*
Y3049000D01*
G01X470000Y1283500D02*
Y1513500D01*
G01X610000Y1148500D02*
X720000D01*
Y1648500D01*
X690000D01*
G01X403000Y2098000D02*
Y1988000D01*
G01X445000Y1648500D02*
X495000D01*
G01X1208000Y1409000D02*
Y1299000D01*
G01X1885000Y767000D02*
Y877000D01*
G01X1498000Y3635000D02*
X1388000D01*
G01X1926000Y3627000D02*
X1816000D01*
G01X2381000Y1222000D02*
X2491000D01*
G01X3115500Y874000D02*
Y1099000D01*
G01X3230500Y989000D02*
X3000500D01*
G01X3115500Y839000D02*
G03X3265500Y989000I0J150000D01*
G03X3110500Y1139000I-150081J0D01*
G03X2965500Y989000I4915J-149834D01*
G03X3115500Y839000I150000J0D01*
G01X2865500Y964000D02*
Y1014000D01*
G01X3365500Y1129000D02*
Y1239000D01*
X2865500D01*
Y1209000D01*
G01X3365500Y849000D02*
Y739000D01*
X2865500D01*
Y769000D01*
G01X2897000Y1928000D02*
X2787000D01*
G01X3346000Y1598000D02*
X3456000D01*
G01X3292000Y2045000D02*
Y2155000D01*
G01X3453000Y2604000D02*
Y2494000D01*
G54D12*
G01X410000Y1807000D02*
Y1907000D01*
X435000D01*
X443000Y1902000D01*
X448000Y1895330D01*
X450000Y1882000D01*
X448000Y1868670D01*
X442000Y1860330D01*
X435000Y1855330D01*
X410000D01*
G01X435000D02*
X450000Y1807000D01*
G01X508000D02*
X510000Y1828670D01*
X513000Y1847000D01*
X517000Y1863670D01*
X522000Y1882000D01*
X530000Y1907000D01*
X490000D01*
G01X393000Y2320670D02*
X387000Y2325670D01*
X380000Y2329000D01*
X372000D01*
X363000Y2324000D01*
X356000Y2315670D01*
X351000Y2305670D01*
X347000Y2289000D01*
X346000Y2274000D01*
X348000Y2259000D01*
X351000Y2249000D01*
X357000Y2239000D01*
X364000Y2232330D01*
X371000Y2229000D01*
X378000D01*
X385000Y2232330D01*
X391000Y2237330D01*
X396000Y2244000D01*
G01X451000Y2229000D02*
Y2329000D01*
X439000Y2309000D01*
G01Y2229000D02*
X463000D01*
G01X613000Y2594000D02*
Y2694000D01*
X638000D01*
X646000Y2689000D01*
X651000Y2682330D01*
X653000Y2669000D01*
X651000Y2655670D01*
X645000Y2647330D01*
X638000Y2642330D01*
X613000D01*
G01X638000D02*
X653000Y2594000D01*
G01X725000D02*
Y2694000D01*
X688000Y2622330D01*
X738000D01*
G01X612000Y3064000D02*
Y3164000D01*
X637000D01*
X645000Y3159000D01*
X650000Y3152330D01*
X652000Y3139000D01*
X650000Y3125670D01*
X644000Y3117330D01*
X637000Y3112330D01*
X612000D01*
G01X637000D02*
X652000Y3064000D01*
G01X690000Y3084000D02*
X696000Y3072330D01*
X704000Y3065670D01*
X713000Y3064000D01*
X721000Y3065670D01*
X729000Y3074000D01*
X734000Y3084000D01*
X735000Y3094000D01*
X733000Y3105660D01*
X726000Y3114000D01*
X719000Y3117330D01*
X710000D01*
G01X719000D02*
X725000Y3122330D01*
X730000Y3130660D01*
X732000Y3140670D01*
X730000Y3150670D01*
X725000Y3159000D01*
X716000Y3164000D01*
X707000Y3162330D01*
X698000Y3155670D01*
G01X1251000Y1469000D02*
Y1569000D01*
X1276000D01*
X1284000Y1564000D01*
X1289000Y1557330D01*
X1291000Y1544000D01*
X1289000Y1530670D01*
X1283000Y1522330D01*
X1276000Y1517330D01*
X1251000D01*
G01X1276000D02*
X1291000Y1469000D01*
G01X1329000Y1484000D02*
X1335000Y1475670D01*
X1342000Y1470670D01*
X1351000Y1469000D01*
X1360000Y1472330D01*
X1367000Y1479000D01*
X1372000Y1490670D01*
X1373000Y1504000D01*
X1371000Y1517330D01*
X1366000Y1525670D01*
X1359000Y1532330D01*
X1352000Y1534000D01*
X1345000Y1532330D01*
X1336000Y1525670D01*
X1339000Y1569000D01*
X1366000D01*
G01X1187000Y3552000D02*
Y3652000D01*
X1212000D01*
X1220000Y3647000D01*
X1225000Y3640330D01*
X1227000Y3627000D01*
X1225000Y3613670D01*
X1219000Y3605330D01*
X1212000Y3600330D01*
X1187000D01*
G01X1212000D02*
X1227000Y3552000D01*
G01X1287000D02*
Y3652000D01*
X1275000Y3632000D01*
G01Y3552000D02*
X1299000D01*
G01X1613000Y3542000D02*
Y3642000D01*
X1638000D01*
X1646000Y3637000D01*
X1651000Y3630330D01*
X1653000Y3617000D01*
X1651000Y3603670D01*
X1645000Y3595330D01*
X1638000Y3590330D01*
X1613000D01*
G01X1638000D02*
X1653000Y3542000D01*
G01X1694000Y3625330D02*
X1700000Y3635330D01*
X1707000Y3640330D01*
X1715000Y3642000D01*
X1725000Y3638670D01*
X1732000Y3630330D01*
X1734000Y3620330D01*
X1733000Y3610330D01*
X1729000Y3602000D01*
X1709000Y3585330D01*
X1700000Y3573670D01*
X1694000Y3557000D01*
X1692000Y3542000D01*
X1734000D01*
G01X2095000Y896000D02*
Y996000D01*
X2120000D01*
X2128000Y991000D01*
X2133000Y984330D01*
X2135000Y971000D01*
X2133000Y957670D01*
X2127000Y949330D01*
X2120000Y944330D01*
X2095000D01*
G01X2120000D02*
X2135000Y896000D01*
G01X2176000Y937660D02*
X2183000Y949330D01*
X2189000Y956000D01*
X2197000Y959330D01*
X2204000Y956000D01*
X2209000Y949330D01*
X2213000Y939330D01*
X2214000Y927670D01*
X2213000Y917670D01*
X2209000Y907660D01*
X2203000Y899330D01*
X2196000Y896000D01*
X2188000Y899330D01*
X2181000Y909330D01*
X2177000Y924330D01*
X2176000Y941000D01*
X2178000Y962660D01*
X2181000Y974330D01*
X2186000Y986000D01*
X2193000Y994330D01*
X2200000Y996000D01*
X2207000Y992670D01*
X2212000Y984330D01*
G01X2244000Y1424000D02*
Y1524000D01*
X2269000D01*
X2277000Y1519000D01*
X2282000Y1512330D01*
X2284000Y1499000D01*
X2282000Y1485670D01*
X2276000Y1477330D01*
X2269000Y1472330D01*
X2244000D01*
G01X2269000D02*
X2284000Y1424000D01*
G01X2344000D02*
X2351000Y1425670D01*
X2359000Y1430670D01*
X2364000Y1439000D01*
X2366000Y1450670D01*
X2364000Y1462330D01*
X2358000Y1472330D01*
X2349000Y1477330D01*
X2339000D01*
X2333000Y1480670D01*
X2328000Y1489000D01*
X2326000Y1500670D01*
X2329000Y1512330D01*
X2336000Y1520670D01*
X2344000Y1524000D01*
X2352000Y1520670D01*
X2359000Y1512330D01*
X2362000Y1500670D01*
X2360000Y1489000D01*
X2355000Y1480670D01*
X2349000Y1477330D01*
X2339000D01*
X2330000Y1472330D01*
X2324000Y1462330D01*
X2322000Y1450670D01*
X2324000Y1439000D01*
X2329000Y1430670D01*
X2337000Y1425670D01*
X2344000Y1424000D01*
G01X2526000Y2117000D02*
Y2217000D01*
X2551000D01*
X2559000Y2212000D01*
X2564000Y2205330D01*
X2566000Y2192000D01*
X2564000Y2178670D01*
X2558000Y2170330D01*
X2551000Y2165330D01*
X2526000D01*
G01X2551000D02*
X2566000Y2117000D01*
G01X2609000Y2128660D02*
X2616000Y2120330D01*
X2624000Y2117000D01*
X2632000Y2120330D01*
X2639000Y2130330D01*
X2644000Y2145330D01*
X2646000Y2160330D01*
Y2178670D01*
X2644000Y2193670D01*
X2639000Y2207000D01*
X2633000Y2213670D01*
X2626000Y2217000D01*
X2618000Y2213670D01*
X2612000Y2207000D01*
X2608000Y2197000D01*
X2606000Y2183660D01*
X2608000Y2172000D01*
X2613000Y2160330D01*
X2619000Y2153660D01*
X2626000Y2152000D01*
X2634000Y2155330D01*
X2640000Y2163670D01*
X2646000Y2178670D01*
G01X3270000Y2700000D02*
Y2800000D01*
X3295000D01*
X3303000Y2795000D01*
X3308000Y2788330D01*
X3310000Y2775000D01*
X3308000Y2761670D01*
X3302000Y2753330D01*
X3295000Y2748330D01*
X3270000D01*
G01X3295000D02*
X3310000Y2700000D01*
G01X3370000D02*
Y2800000D01*
X3358000Y2780000D01*
G01Y2700000D02*
X3382000D01*
G01X3450000Y2800000D02*
X3442000Y2796670D01*
X3436000Y2788330D01*
X3432000Y2778330D01*
X3429000Y2765000D01*
X3428000Y2750000D01*
X3429000Y2735000D01*
X3432000Y2721670D01*
X3436000Y2711660D01*
X3442000Y2703330D01*
X3450000Y2700000D01*
X3458000Y2703330D01*
X3464000Y2711660D01*
X3468000Y2721670D01*
X3471000Y2735000D01*
X3472000Y2750000D01*
X3471000Y2765000D01*
X3468000Y2778330D01*
X3464000Y2788330D01*
X3458000Y2796670D01*
X3450000Y2800000D01*
G01X3278000Y2232000D02*
Y2332000D01*
X3303000D01*
X3311000Y2327000D01*
X3316000Y2320330D01*
X3318000Y2307000D01*
X3316000Y2293670D01*
X3310000Y2285330D01*
X3303000Y2280330D01*
X3278000D01*
G01X3303000D02*
X3318000Y2232000D01*
G01X3358000Y2332000D02*
Y2232000D01*
X3398000D01*
G01X3439000Y2315330D02*
X3445000Y2325330D01*
X3452000Y2330330D01*
X3460000Y2332000D01*
X3470000Y2328670D01*
X3477000Y2320330D01*
X3479000Y2310330D01*
X3478000Y2300330D01*
X3474000Y2292000D01*
X3454000Y2275330D01*
X3445000Y2263670D01*
X3439000Y2247000D01*
X3437000Y2232000D01*
X3479000D01*
G01X3544000Y1654000D02*
Y1754000D01*
X3569000D01*
X3577000Y1749000D01*
X3582000Y1742330D01*
X3584000Y1729000D01*
X3582000Y1715670D01*
X3576000Y1707330D01*
X3569000Y1702330D01*
X3544000D01*
G01X3569000D02*
X3584000Y1654000D01*
G01X3624000Y1754000D02*
Y1654000D01*
X3664000D01*
G01X3724000D02*
Y1754000D01*
X3712000Y1734000D01*
G01Y1654000D02*
X3736000D01*
G54D13*
G01X194570Y602500D02*
Y221500D01*
G01D02*
X1070870D01*
G01Y602500D02*
X194570D01*
G01X129570Y3868500D02*
Y3487500D01*
G01D02*
X1005870D01*
G01Y3868500D02*
X129570D01*
G01X1070870Y221500D02*
Y602500D01*
G01X1005870Y3487500D02*
Y3868500D01*
G01X1465130Y544500D02*
Y163500D01*
G01D02*
X2341430D01*
G01Y544500D02*
X1465130D01*
G01X2341430Y163500D02*
Y544500D01*
M02*
