G04 ================== begin FILE IDENTIFICATION RECORD ==================*
G04 Layout Name:  SCHEMA_CU_CONECTORI.brd*
G04 Film Name:    BOTTOM*
G04 File Format:  Gerber RS274X*
G04 File Origin:  Cadence Allegro 17.2-S025*
G04 Origin Date:  Sun Dec 15 17:23:26 2024*
G04 *
G04 Layer:  ETCH/BOTTOM*
G04 Layer:  PIN/BOTTOM*
G04 Layer:  VIA CLASS/BOTTOM*
G04 *
G04 Offset:    (0.0000 0.0000)*
G04 Mirror:    No*
G04 Mode:      Positive*
G04 Rotation:  0*
G04 FullContactRelief:  No*
G04 UndefLineWidth:     0.1000*
G04 ================== end FILE IDENTIFICATION RECORD ====================*
%FSLAX25Y25*MOMM*%
%IR0*IPPOS*OFA0.00000B0.00000*MIA0B0*SFA1.00000B1.00000*%
%ADD10C,.6096*%
%ADD11C,.45*%
%ADD12C,.667*%
G75*
%LPD*%
G75*
G54D10*
X333000Y829000D03*
X298000Y2251000D03*
X783000Y2316000D03*
Y2546000D03*
X1061000Y2172000D03*
X908000Y2761000D03*
X1302000Y354000D03*
X1335000Y764000D03*
X1586000D03*
X1889140Y1472860D03*
X1530000Y2218000D03*
X1418000Y2855000D03*
X1912000D03*
X1526000Y2712300D03*
X2038000Y1664000D03*
X2395750Y1636750D03*
X2621750D03*
X2638000Y1421000D03*
X2306000Y2993000D03*
X3194000Y2359000D03*
X3345260Y2888260D03*
G54D11*
G01X2395750Y1636750D02*
X2121000Y1362000D01*
X1551000D01*
X1506000Y1407000D01*
Y2015000D01*
X1349000Y2172000D01*
X1061000D01*
G01X783000Y2546000D02*
Y2316000D01*
G01X908000Y2761000D02*
X1477300D01*
X1526000Y2712300D01*
G01X1335000Y764000D02*
X1586000D01*
G01X1889140Y1472860D02*
X2038000Y1621720D01*
Y1664000D01*
G01X1530000Y2218000D02*
X1919000D01*
X2110000Y2409000D01*
Y2797000D01*
X2306000Y2993000D01*
G01X1418000Y2855000D02*
X1912000D01*
G01X2395750Y1636750D02*
X2621750D01*
G54D12*
G01X298000Y2251000D02*
X221460D01*
X172000Y2201540D01*
Y1892000D01*
X333000Y1731000D01*
Y829000D01*
G01D02*
X387130Y774870D01*
X1077130D01*
X1302000Y550000D01*
Y354000D01*
G01X3194000Y2359000D02*
X3109000Y2274000D01*
X3058700D01*
X2992000Y2207300D01*
Y2103000D01*
X3073000Y2022000D01*
Y1755000D01*
X2739000Y1421000D01*
X2638000D01*
G01X3345260Y2888260D02*
Y2510260D01*
X3194000Y2359000D01*
M02*
