M48
METRIC,TZ
T01C.4
;LEADER: 12 
;HEADER: 
;CODE  : ASCII 
;FILE  : SCHEMA_CU_CONECTORI-1-3.drl for  ... layers TOP and BOTTOM
;DESIGN: SCHEMA_CU_CONECTORI.brd
;T01 Holesize 1. = 0.400000 Tolerance = +0.000000/-0.000000 PLATED MM Quantity = 21
%
G90
T01
X3194000Y2359000
X1302000Y354000
X3345260Y2888260
X333000Y829000
X298000Y2251000
X2638000Y1421000
X908000Y2761000
X1526000Y2712300
X1912000Y2855000
X1418000Y2855000
X2306000Y2993000
X1530000Y2218000
X1586000Y764000
X1335000Y764000
X1061000Y2172000
X2621750Y1636750
X783000Y2546000
X783000Y2316000
X2395750Y1636750
X1889140Y1472860
X2038000Y1664000
M30
