G04 ================== begin FILE IDENTIFICATION RECORD ==================*
G04 Layout Name:  SCHEMA_CU_CONECTORI.brd*
G04 Film Name:    FAB*
G04 File Format:  Gerber RS274X*
G04 File Origin:  Cadence Allegro 17.2-S025*
G04 Origin Date:  Sun Dec 15 17:23:26 2024*
G04 *
G04 Layer:  MANUFACTURING/NCDRILL_LEGEND*
G04 Layer:  MANUFACTURING/NCDRILL_FIGURE*
G04 Layer:  MANUFACTURING/XSECTION_CHART*
G04 Layer:  MANUFACTURING/NCLEGEND-1-3*
G04 Layer:  MANUFACTURING/NCLEGEND-1-2*
G04 Layer:  DRAWING FORMAT/OUTLINE*
G04 *
G04 Offset:    (0.0000 0.0000)*
G04 Mirror:    No*
G04 Mode:      Positive*
G04 Rotation:  0*
G04 FullContactRelief:  No*
G04 UndefLineWidth:     0.1000*
G04 ================== end FILE IDENTIFICATION RECORD ====================*
%FSLAX25Y25*MOMM*%
%IR0*IPPOS*OFA0.00000B0.00000*MIA0B0*SFA1.00000B1.00000*%
%AMMACRO10*
1,1,.1,0.0,.5*
20,1,.1,0.0,.5,.5,-.5,0.0*
1,1,.1,.5,-.5*
20,1,.1,.5,-.5,-.5,-.5,0.0*
1,1,.1,-.5,-.5*
20,1,.1,-.5,-.5,0.0,.5,0.0*
1,1,.1,0.0,.5*
1,1,.1,.25,0.0*
20,1,.1,.25,0.0,-.25,0.0,0.0*
1,1,.1,-.25,0.0*
1,1,.1,0.0,.25*
20,1,.1,0.0,.25,0.0,-.25,0.0*
1,1,.1,0.0,-.25*
%
%ADD10MACRO10*%
%ADD11C,.1*%
G75*
%LPD*%
G75*
G36*
G01X-6002240Y5400730D02*
Y5344940D01*
X-5938740D01*
Y384930D01*
X-6002240D01*
Y329140D01*
X-5621240D01*
Y384930D01*
X-5684740D01*
Y5344940D01*
X-5621240D01*
Y5400730D01*
X-6002240D01*
G37*
G36*
G01X-6510240Y329150D02*
Y384940D01*
X-4986240D01*
Y329150D01*
X-6510240D01*
G37*
G36*
G01Y5344940D02*
Y5400730D01*
X-4986240D01*
Y5344940D01*
X-6510240D01*
G37*
G54D10*
X333000Y829000D03*
X298000Y2251000D03*
X1136730Y-2687500D03*
X783000Y2316000D03*
Y2546000D03*
X1061000Y2172000D03*
X908000Y2761000D03*
X1302000Y354000D03*
X1335000Y764000D03*
X1586000D03*
X1889140Y1472860D03*
X1530000Y2218000D03*
X1418000Y2855000D03*
X1912000D03*
X1526000Y2712300D03*
X2038000Y1664000D03*
X2395750Y1636750D03*
X2621750D03*
X2638000Y1421000D03*
X2306000Y2993000D03*
X3194000Y2359000D03*
X3345260Y2888260D03*
G54D11*
G01X-6718970Y62460D02*
Y125960D01*
X-6698760D01*
X-6690680Y122780D01*
X-6684610Y118550D01*
X-6679560Y112200D01*
X-6675520Y104790D01*
X-6674510Y94210D01*
X-6675520Y83630D01*
X-6679560Y76220D01*
X-6684610Y69870D01*
X-6690680Y65630D01*
X-6698760Y62460D01*
X-6718970D01*
G01X-6600650D02*
X-6641070D01*
Y125960D01*
X-6600650D01*
G01X-6616820Y95270D02*
X-6641070D01*
G01X-6566200Y70920D02*
X-6558120Y65630D01*
X-6549020Y62460D01*
X-6540940D01*
X-6532850Y65630D01*
X-6526790Y70920D01*
X-6523760Y78340D01*
X-6525780Y85740D01*
X-6530830Y92090D01*
X-6539930Y96330D01*
X-6552050Y98440D01*
X-6559130Y102680D01*
X-6562160Y110080D01*
X-6560140Y117490D01*
X-6555090Y122780D01*
X-6548010Y125960D01*
X-6540940D01*
X-6533860Y123840D01*
X-6527800Y118550D01*
G01X-6481230Y125960D02*
X-6456970D01*
G01X-6469100D02*
Y62460D01*
G01X-6481230D02*
X-6456970D01*
G01X-6387160Y94210D02*
X-6366940D01*
Y75160D01*
X-6373010Y68810D01*
X-6380080Y64580D01*
X-6390190Y62460D01*
X-6400290Y64580D01*
X-6407370Y68810D01*
X-6413430Y75160D01*
X-6417480Y82570D01*
X-6419500Y91030D01*
Y98440D01*
X-6417480Y104790D01*
X-6413430Y112200D01*
X-6407370Y118550D01*
X-6401310Y122780D01*
X-6393220Y125960D01*
X-6386150D01*
X-6378060Y123840D01*
X-6372000Y119610D01*
G01X-6340580Y62460D02*
Y125960D01*
X-6294100Y62460D01*
Y125960D01*
G01X-6143350Y120670D02*
X-6149410Y123840D01*
X-6156480Y125960D01*
X-6164570D01*
X-6173670Y122780D01*
X-6180740Y117490D01*
X-6185790Y111140D01*
X-6189840Y100560D01*
X-6190850Y91030D01*
X-6188820Y81510D01*
X-6185790Y75160D01*
X-6179730Y68810D01*
X-6172650Y64580D01*
X-6165580Y62460D01*
X-6158510D01*
X-6151430Y64580D01*
X-6145370Y67750D01*
X-6140310Y71980D01*
G01X-6109910Y62460D02*
Y125960D01*
X-6084650D01*
X-6076560Y122780D01*
X-6071510Y118550D01*
X-6069490Y110080D01*
X-6071510Y101620D01*
X-6077570Y96330D01*
X-6084650Y93150D01*
X-6109910D01*
G01X-6084650D02*
X-6069490Y62460D01*
G01X-6013820D02*
X-6021910Y63520D01*
X-6028980Y67750D01*
X-6035040Y74100D01*
X-6039090Y81510D01*
X-6041110Y89980D01*
Y98440D01*
X-6039090Y106910D01*
X-6035040Y114320D01*
X-6028980Y120670D01*
X-6021910Y124900D01*
X-6013820Y125960D01*
X-6005740Y124900D01*
X-5998660Y120670D01*
X-5992600Y114320D01*
X-5988550Y106910D01*
X-5986530Y98440D01*
Y89980D01*
X-5988550Y81510D01*
X-5992600Y74100D01*
X-5998660Y67750D01*
X-6005740Y63520D01*
X-6013820Y62460D01*
G01X-5959160Y70920D02*
X-5951080Y65630D01*
X-5941980Y62460D01*
X-5933900D01*
X-5925810Y65630D01*
X-5919750Y70920D01*
X-5916720Y78340D01*
X-5918740Y85740D01*
X-5923790Y92090D01*
X-5932890Y96330D01*
X-5945010Y98440D01*
X-5952090Y102680D01*
X-5955120Y110080D01*
X-5953100Y117490D01*
X-5948050Y122780D01*
X-5940970Y125960D01*
X-5933900D01*
X-5926820Y123840D01*
X-5920760Y118550D01*
G01X-5883280Y70920D02*
X-5875200Y65630D01*
X-5866100Y62460D01*
X-5858020D01*
X-5849930Y65630D01*
X-5843870Y70920D01*
X-5840840Y78340D01*
X-5842860Y85740D01*
X-5847910Y92090D01*
X-5857010Y96330D01*
X-5869130Y98440D01*
X-5876210Y102680D01*
X-5879240Y110080D01*
X-5877220Y117490D01*
X-5872170Y122780D01*
X-5865090Y125960D01*
X-5858020D01*
X-5850940Y123840D01*
X-5844880Y118550D01*
G01X-5731520Y70920D02*
X-5723440Y65630D01*
X-5714340Y62460D01*
X-5706260D01*
X-5698170Y65630D01*
X-5692110Y70920D01*
X-5689080Y78340D01*
X-5691100Y85740D01*
X-5696150Y92090D01*
X-5705250Y96330D01*
X-5717370Y98440D01*
X-5724450Y102680D01*
X-5727480Y110080D01*
X-5725460Y117490D01*
X-5720410Y122780D01*
X-5713330Y125960D01*
X-5706260D01*
X-5699180Y123840D01*
X-5693120Y118550D01*
G01X-5614210Y62460D02*
X-5654630D01*
Y125960D01*
X-5614210D01*
G01X-5630380Y95270D02*
X-5654630D01*
G01X-5536310Y120670D02*
X-5542370Y123840D01*
X-5549440Y125960D01*
X-5557530D01*
X-5566630Y122780D01*
X-5573700Y117490D01*
X-5578750Y111140D01*
X-5582800Y100560D01*
X-5583810Y91030D01*
X-5581780Y81510D01*
X-5578750Y75160D01*
X-5572690Y68810D01*
X-5565610Y64580D01*
X-5558540Y62460D01*
X-5551470D01*
X-5544390Y64580D01*
X-5538330Y67750D01*
X-5533270Y71980D01*
G01X-5482660Y125960D02*
Y62460D01*
G01X-5505900Y125960D02*
X-5459420D01*
G01X-5418910D02*
X-5394650D01*
G01X-5406780D02*
Y62460D01*
G01X-5418910D02*
X-5394650D01*
G01X-5330900D02*
X-5338990Y63520D01*
X-5346060Y67750D01*
X-5352120Y74100D01*
X-5356170Y81510D01*
X-5358190Y89980D01*
Y98440D01*
X-5356170Y106910D01*
X-5352120Y114320D01*
X-5346060Y120670D01*
X-5338990Y124900D01*
X-5330900Y125960D01*
X-5322820Y124900D01*
X-5315740Y120670D01*
X-5309680Y114320D01*
X-5305630Y106910D01*
X-5303610Y98440D01*
Y89980D01*
X-5305630Y81510D01*
X-5309680Y74100D01*
X-5315740Y67750D01*
X-5322820Y63520D01*
X-5330900Y62460D01*
G01X-5278260D02*
Y125960D01*
X-5231780Y62460D01*
Y125960D01*
G01X-5081030Y120670D02*
X-5087090Y123840D01*
X-5094160Y125960D01*
X-5102250D01*
X-5111350Y122780D01*
X-5118420Y117490D01*
X-5123470Y111140D01*
X-5127520Y100560D01*
X-5128530Y91030D01*
X-5126500Y81510D01*
X-5123470Y75160D01*
X-5117410Y68810D01*
X-5110330Y64580D01*
X-5103260Y62460D01*
X-5096190D01*
X-5089110Y64580D01*
X-5083050Y67750D01*
X-5077990Y71980D01*
G01X-5048600Y62460D02*
Y125960D01*
G01X-5006160D02*
Y62460D01*
G01Y94210D02*
X-5048600D01*
G01X-4976770Y62460D02*
X-4951500Y125960D01*
X-4926230Y62460D01*
G01X-4935330Y84680D02*
X-4967670D01*
G01X-4895830Y62460D02*
Y125960D01*
X-4870570D01*
X-4862480Y122780D01*
X-4857430Y118550D01*
X-4855410Y110080D01*
X-4857430Y101620D01*
X-4863490Y96330D01*
X-4870570Y93150D01*
X-4895830D01*
G01X-4870570D02*
X-4855410Y62460D01*
G01X-4799740Y125960D02*
Y62460D01*
G01X-4822980Y125960D02*
X-4776500D01*
G01X-6765000Y41290D02*
X-6704360D01*
G01X-6689120D02*
X-6628480D01*
G01X-6613240D02*
X-6552600D01*
G01X-6537360D02*
X-6476720D01*
G01X-6461480D02*
X-6400840D01*
G01X-6385600D02*
X-6324960D01*
G01X-6309720D02*
X-6249080D01*
G01X-6233840D02*
X-6173200D01*
G01X-6157960D02*
X-6097320D01*
G01X-6082080D02*
X-6021440D01*
G01X-6006200D02*
X-5945560D01*
G01X-5930320D02*
X-5869680D01*
G01X-5854440D02*
X-5793800D01*
G01X-5778560D02*
X-5717920D01*
G01X-5702680D02*
X-5642040D01*
G01X-5626800D02*
X-5566160D01*
G01X-5550920D02*
X-5490280D01*
G01X-5475040D02*
X-5414400D01*
G01X-5399160D02*
X-5338520D01*
G01X-5323280D02*
X-5262640D01*
G01X-5247400D02*
X-5186760D01*
G01X-5171520D02*
X-5110880D01*
G01X-5095640D02*
X-5035000D01*
G01X-5019760D02*
X-4959120D01*
G01X-4943880D02*
X-4883240D01*
G01X-4868000D02*
X-4807360D01*
G01X-4792120D02*
X-4731480D01*
G01X-6620860Y11660D02*
Y-51840D01*
G01X-6644100Y11660D02*
X-6597620D01*
G01X-6544980Y-51840D02*
X-6553070Y-50780D01*
X-6560140Y-46550D01*
X-6566200Y-40200D01*
X-6570250Y-32790D01*
X-6572270Y-24320D01*
Y-15860D01*
X-6570250Y-7390D01*
X-6566200Y20D01*
X-6560140Y6370D01*
X-6553070Y10600D01*
X-6544980Y11660D01*
X-6536900Y10600D01*
X-6529820Y6370D01*
X-6523760Y20D01*
X-6519710Y-7390D01*
X-6517690Y-15860D01*
Y-24320D01*
X-6519710Y-32790D01*
X-6523760Y-40200D01*
X-6529820Y-46550D01*
X-6536900Y-50780D01*
X-6544980Y-51840D01*
G01X-6469100Y11660D02*
Y-51840D01*
G01X-6492340Y11660D02*
X-6445860D01*
G01X-6418490Y-51840D02*
X-6393220Y11660D01*
X-6367950Y-51840D01*
G01X-6377050Y-29620D02*
X-6409390D01*
G01X-6337550Y11660D02*
Y-51840D01*
X-6297130D01*
G01X-6165580Y11660D02*
Y-51840D01*
G01X-6188820Y11660D02*
X-6142340D01*
G01X-6110920Y-51840D02*
Y11660D01*
G01X-6068480D02*
Y-51840D01*
G01Y-20090D02*
X-6110920D01*
G01X-6025950Y11660D02*
X-6001690D01*
G01X-6013820D02*
Y-51840D01*
G01X-6025950D02*
X-6001690D01*
G01X-5915710Y6370D02*
X-5921770Y9540D01*
X-5928840Y11660D01*
X-5936930D01*
X-5946030Y8480D01*
X-5953100Y3190D01*
X-5958150Y-3160D01*
X-5962200Y-13740D01*
X-5963210Y-23270D01*
X-5961180Y-32790D01*
X-5958150Y-39140D01*
X-5952090Y-45490D01*
X-5945010Y-49720D01*
X-5937940Y-51840D01*
X-5930870D01*
X-5923790Y-49720D01*
X-5917730Y-46550D01*
X-5912670Y-42320D01*
G01X-5884290Y-51840D02*
Y11660D01*
G01X-5845890D02*
X-5884290Y-27500D01*
G01X-5839830Y-51840D02*
X-5867110Y-9510D01*
G01X-5809420Y-51840D02*
Y11660D01*
X-5762940Y-51840D01*
Y11660D01*
G01X-5690090Y-51840D02*
X-5730510D01*
Y11660D01*
X-5690090D01*
G01X-5706260Y-19030D02*
X-5730510D01*
G01X-5655640Y-43380D02*
X-5647560Y-48670D01*
X-5638460Y-51840D01*
X-5630380D01*
X-5622290Y-48670D01*
X-5616230Y-43380D01*
X-5613200Y-35960D01*
X-5615220Y-28560D01*
X-5620270Y-22210D01*
X-5629370Y-17970D01*
X-5641490Y-15860D01*
X-5648570Y-11620D01*
X-5651600Y-4220D01*
X-5649580Y3190D01*
X-5644530Y8480D01*
X-5637450Y11660D01*
X-5630380D01*
X-5623300Y9540D01*
X-5617240Y4250D01*
G01X-5579760Y-43380D02*
X-5571680Y-48670D01*
X-5562580Y-51840D01*
X-5554500D01*
X-5546410Y-48670D01*
X-5540350Y-43380D01*
X-5537320Y-35960D01*
X-5539340Y-28560D01*
X-5544390Y-22210D01*
X-5553490Y-17970D01*
X-5565610Y-15860D01*
X-5572690Y-11620D01*
X-5575720Y-4220D01*
X-5573700Y3190D01*
X-5568650Y8480D01*
X-5561570Y11660D01*
X-5554500D01*
X-5547420Y9540D01*
X-5541360Y4250D01*
G01X-5406780Y-51840D02*
Y11660D01*
X-5418910Y-1040D01*
G01Y-51840D02*
X-5394650D01*
G01X-5330900Y-53960D02*
X-5332920Y-52900D01*
Y-50780D01*
X-5330900Y-49720D01*
X-5328880Y-50780D01*
Y-52900D01*
X-5330900Y-53960D01*
G01X-5274220Y-25380D02*
X-5267150Y-17970D01*
X-5261080Y-13740D01*
X-5253000Y-11620D01*
X-5245920Y-13740D01*
X-5240870Y-17970D01*
X-5236830Y-24320D01*
X-5235820Y-31730D01*
X-5236830Y-38080D01*
X-5240870Y-44430D01*
X-5246940Y-49720D01*
X-5254010Y-51840D01*
X-5262090Y-49720D01*
X-5269170Y-43380D01*
X-5273210Y-33850D01*
X-5274220Y-23270D01*
X-5272200Y-9510D01*
X-5269170Y-2100D01*
X-5264120Y5310D01*
X-5257040Y10600D01*
X-5249970Y11660D01*
X-5242890Y9540D01*
X-5237840Y4250D01*
G01X-5201370Y-39140D02*
X-5195310Y-46550D01*
X-5187230Y-50780D01*
X-5178130Y-51840D01*
X-5170040Y-50780D01*
X-5161960Y-45490D01*
X-5156910Y-39140D01*
X-5155900Y-32790D01*
X-5157920Y-25380D01*
X-5164990Y-20090D01*
X-5172070Y-17970D01*
X-5181160D01*
G01X-5172070D02*
X-5166000Y-14800D01*
X-5160950Y-9510D01*
X-5158930Y-3160D01*
X-5160950Y3190D01*
X-5166000Y8480D01*
X-5175100Y11660D01*
X-5184190Y10600D01*
X-5193290Y6370D01*
G01X-5122460Y-25380D02*
X-5115390Y-17970D01*
X-5109320Y-13740D01*
X-5101240Y-11620D01*
X-5094160Y-13740D01*
X-5089110Y-17970D01*
X-5085070Y-24320D01*
X-5084060Y-31730D01*
X-5085070Y-38080D01*
X-5089110Y-44430D01*
X-5095180Y-49720D01*
X-5102250Y-51840D01*
X-5110330Y-49720D01*
X-5117410Y-43380D01*
X-5121450Y-33850D01*
X-5122460Y-23270D01*
X-5120440Y-9510D01*
X-5117410Y-2100D01*
X-5112360Y5310D01*
X-5105280Y10600D01*
X-5098210Y11660D01*
X-5091130Y9540D01*
X-5086080Y4250D01*
G01X-4977780Y-51840D02*
Y11660D01*
X-4951500Y-41260D01*
X-4925220Y11660D01*
Y-51840D01*
G01X-4901900D02*
Y11660D01*
X-4875620Y-41260D01*
X-4849340Y11660D01*
Y-51840D01*
G01X-5811740Y5494550D02*
X-5875240D01*
X-5862540Y5482420D01*
G01X-5811740D02*
Y5506680D01*
G01X-5832910Y5557290D02*
Y5583570D01*
G01X-5824440Y5624080D02*
X-5817030Y5630140D01*
X-5812800Y5638220D01*
X-5811740Y5647320D01*
X-5812800Y5655410D01*
X-5818090Y5663490D01*
X-5824440Y5668540D01*
X-5830790Y5669550D01*
X-5838200Y5667530D01*
X-5843490Y5660460D01*
X-5845610Y5653380D01*
Y5644290D01*
G01Y5653380D02*
X-5848780Y5659450D01*
X-5854070Y5664500D01*
X-5860420Y5666520D01*
X-5866770Y5664500D01*
X-5872060Y5659450D01*
X-5875240Y5650350D01*
X-5874180Y5641260D01*
X-5869950Y5632160D01*
G01X-4900250Y363780D02*
Y300280D01*
X-4859830D01*
G01X-4826390Y312980D02*
X-4820330Y305570D01*
X-4812250Y301340D01*
X-4803150Y300280D01*
X-4795060Y301340D01*
X-4786980Y306630D01*
X-4781930Y312980D01*
X-4780920Y319330D01*
X-4782940Y326740D01*
X-4790010Y332030D01*
X-4797090Y334150D01*
X-4806180D01*
G01X-4797090D02*
X-4791020Y337320D01*
X-4785970Y342610D01*
X-4783950Y348960D01*
X-4785970Y355310D01*
X-4791020Y360600D01*
X-4800120Y363780D01*
X-4809210Y362720D01*
X-4818310Y358490D01*
G01X-4644320Y334150D02*
X-4640270Y337320D01*
X-4637240Y342610D01*
X-4635220Y350020D01*
X-4637240Y356370D01*
X-4641280Y360600D01*
X-4648360Y363780D01*
X-4675640D01*
Y300280D01*
X-4642290D01*
X-4635220Y304510D01*
X-4631180Y310860D01*
X-4629160Y318270D01*
X-4631180Y325680D01*
X-4637240Y332030D01*
X-4644320Y334150D01*
X-4675640D01*
G01X-4576520Y300280D02*
X-4584610Y301340D01*
X-4591680Y305570D01*
X-4597740Y311920D01*
X-4601790Y319330D01*
X-4603810Y327800D01*
Y336260D01*
X-4601790Y344730D01*
X-4597740Y352140D01*
X-4591680Y358490D01*
X-4584610Y362720D01*
X-4576520Y363780D01*
X-4568440Y362720D01*
X-4561360Y358490D01*
X-4555300Y352140D01*
X-4551250Y344730D01*
X-4549230Y336260D01*
Y327800D01*
X-4551250Y319330D01*
X-4555300Y311920D01*
X-4561360Y305570D01*
X-4568440Y301340D01*
X-4576520Y300280D01*
G01X-4500640Y363780D02*
Y300280D01*
G01X-4523880Y363780D02*
X-4477400D01*
G01X-4424760D02*
Y300280D01*
G01X-4448000Y363780D02*
X-4401520D01*
G01X-4348880Y300280D02*
X-4356970Y301340D01*
X-4364040Y305570D01*
X-4370100Y311920D01*
X-4374150Y319330D01*
X-4376170Y327800D01*
Y336260D01*
X-4374150Y344730D01*
X-4370100Y352140D01*
X-4364040Y358490D01*
X-4356970Y362720D01*
X-4348880Y363780D01*
X-4340800Y362720D01*
X-4333720Y358490D01*
X-4327660Y352140D01*
X-4323610Y344730D01*
X-4321590Y336260D01*
Y327800D01*
X-4323610Y319330D01*
X-4327660Y311920D01*
X-4333720Y305570D01*
X-4340800Y301340D01*
X-4348880Y300280D01*
G01X-4299280D02*
Y363780D01*
X-4273000Y310860D01*
X-4246720Y363780D01*
Y300280D01*
G01X-4099010Y358490D02*
X-4105070Y361660D01*
X-4112140Y363780D01*
X-4120230D01*
X-4129330Y360600D01*
X-4136400Y355310D01*
X-4141450Y348960D01*
X-4145500Y338380D01*
X-4146510Y328850D01*
X-4144480Y319330D01*
X-4141450Y312980D01*
X-4135390Y306630D01*
X-4128310Y302400D01*
X-4121240Y300280D01*
X-4114170D01*
X-4107090Y302400D01*
X-4101030Y305570D01*
X-4095970Y309800D01*
G01X-4045360Y300280D02*
X-4053450Y301340D01*
X-4060520Y305570D01*
X-4066580Y311920D01*
X-4070630Y319330D01*
X-4072650Y327800D01*
Y336260D01*
X-4070630Y344730D01*
X-4066580Y352140D01*
X-4060520Y358490D01*
X-4053450Y362720D01*
X-4045360Y363780D01*
X-4037280Y362720D01*
X-4030200Y358490D01*
X-4024140Y352140D01*
X-4020090Y344730D01*
X-4018070Y336260D01*
Y327800D01*
X-4020090Y319330D01*
X-4024140Y311920D01*
X-4030200Y305570D01*
X-4037280Y301340D01*
X-4045360Y300280D01*
G01X-3992720D02*
Y363780D01*
X-3946240Y300280D01*
Y363780D01*
G01X-3915830Y300280D02*
Y363780D01*
X-3895620D01*
X-3887540Y360600D01*
X-3881470Y356370D01*
X-3876420Y350020D01*
X-3872380Y342610D01*
X-3871370Y332030D01*
X-3872380Y321450D01*
X-3876420Y314040D01*
X-3881470Y307690D01*
X-3887540Y303450D01*
X-3895620Y300280D01*
X-3915830D01*
G01X-3839950Y363780D02*
Y318270D01*
X-3835910Y308740D01*
X-3827830Y302400D01*
X-3817720Y300280D01*
X-3807610Y302400D01*
X-3799530Y308740D01*
X-3795490Y318270D01*
Y363780D01*
G01X-3719610Y358490D02*
X-3725670Y361660D01*
X-3732740Y363780D01*
X-3740830D01*
X-3749930Y360600D01*
X-3757000Y355310D01*
X-3762050Y348960D01*
X-3766100Y338380D01*
X-3767110Y328850D01*
X-3765080Y319330D01*
X-3762050Y312980D01*
X-3755990Y306630D01*
X-3748910Y302400D01*
X-3741840Y300280D01*
X-3734770D01*
X-3727690Y302400D01*
X-3721630Y305570D01*
X-3716570Y309800D01*
G01X-3665960Y363780D02*
Y300280D01*
G01X-3689200Y363780D02*
X-3642720D01*
G01X-3590080Y300280D02*
X-3598170Y301340D01*
X-3605240Y305570D01*
X-3611300Y311920D01*
X-3615350Y319330D01*
X-3617370Y327800D01*
Y336260D01*
X-3615350Y344730D01*
X-3611300Y352140D01*
X-3605240Y358490D01*
X-3598170Y362720D01*
X-3590080Y363780D01*
X-3582000Y362720D01*
X-3574920Y358490D01*
X-3568860Y352140D01*
X-3564810Y344730D01*
X-3562790Y336260D01*
Y327800D01*
X-3564810Y319330D01*
X-3568860Y311920D01*
X-3574920Y305570D01*
X-3582000Y301340D01*
X-3590080Y300280D01*
G01X-3534410D02*
Y363780D01*
X-3509150D01*
X-3501060Y360600D01*
X-3496010Y356370D01*
X-3493990Y347900D01*
X-3496010Y339440D01*
X-3502070Y334150D01*
X-3509150Y330970D01*
X-3534410D01*
G01X-3509150D02*
X-3493990Y300280D01*
G01X-3375580Y321450D02*
X-3349300D01*
G01X-3188450Y358490D02*
X-3194510Y361660D01*
X-3201580Y363780D01*
X-3209670D01*
X-3218770Y360600D01*
X-3225840Y355310D01*
X-3230890Y348960D01*
X-3234940Y338380D01*
X-3235950Y328850D01*
X-3233920Y319330D01*
X-3230890Y312980D01*
X-3224830Y306630D01*
X-3217750Y302400D01*
X-3210680Y300280D01*
X-3203610D01*
X-3196530Y302400D01*
X-3190470Y305570D01*
X-3185410Y309800D01*
G01X-3134800Y300280D02*
X-3142890Y301340D01*
X-3149960Y305570D01*
X-3156020Y311920D01*
X-3160070Y319330D01*
X-3162090Y327800D01*
Y336260D01*
X-3160070Y344730D01*
X-3156020Y352140D01*
X-3149960Y358490D01*
X-3142890Y362720D01*
X-3134800Y363780D01*
X-3126720Y362720D01*
X-3119640Y358490D01*
X-3113580Y352140D01*
X-3109530Y344730D01*
X-3107510Y336260D01*
Y327800D01*
X-3109530Y319330D01*
X-3113580Y311920D01*
X-3119640Y305570D01*
X-3126720Y301340D01*
X-3134800Y300280D01*
G01X-3079130D02*
Y363780D01*
X-3054880D01*
X-3046790Y360600D01*
X-3040730Y353200D01*
X-3038710Y344730D01*
X-3040730Y336260D01*
X-3045780Y329910D01*
X-3054880Y326740D01*
X-3079130D01*
G01X-3003250Y300280D02*
Y363780D01*
X-2979000D01*
X-2970910Y360600D01*
X-2964850Y353200D01*
X-2962830Y344730D01*
X-2964850Y336260D01*
X-2969900Y329910D01*
X-2979000Y326740D01*
X-3003250D01*
G01X-2886950Y300280D02*
X-2927370D01*
Y363780D01*
X-2886950D01*
G01X-2903120Y333090D02*
X-2927370D01*
G01X-2851490Y300280D02*
Y363780D01*
X-2826230D01*
X-2818140Y360600D01*
X-2813090Y356370D01*
X-2811070Y347900D01*
X-2813090Y339440D01*
X-2819150Y334150D01*
X-2826230Y330970D01*
X-2851490D01*
G01X-2826230D02*
X-2811070Y300280D01*
G01X-2679520Y363780D02*
X-2687610Y361660D01*
X-2693670Y356370D01*
X-2697710Y350020D01*
X-2700740Y341550D01*
X-2701750Y332030D01*
X-2700740Y322500D01*
X-2697710Y314040D01*
X-2693670Y307690D01*
X-2687610Y302400D01*
X-2679520Y300280D01*
X-2671440Y302400D01*
X-2665370Y307690D01*
X-2661330Y314040D01*
X-2658300Y322500D01*
X-2657290Y332030D01*
X-2658300Y341550D01*
X-2661330Y350020D01*
X-2665370Y356370D01*
X-2671440Y361660D01*
X-2679520Y363780D01*
G01X-2603640Y298160D02*
X-2605660Y299220D01*
Y301340D01*
X-2603640Y302400D01*
X-2601620Y301340D01*
Y299220D01*
X-2603640Y298160D01*
G01X-2527760Y363780D02*
X-2535850Y361660D01*
X-2541910Y356370D01*
X-2545950Y350020D01*
X-2548980Y341550D01*
X-2549990Y332030D01*
X-2548980Y322500D01*
X-2545950Y314040D01*
X-2541910Y307690D01*
X-2535850Y302400D01*
X-2527760Y300280D01*
X-2519680Y302400D01*
X-2513610Y307690D01*
X-2509570Y314040D01*
X-2506540Y322500D01*
X-2505530Y332030D01*
X-2506540Y341550D01*
X-2509570Y350020D01*
X-2513610Y356370D01*
X-2519680Y361660D01*
X-2527760Y363780D01*
G01X-2451880Y300280D02*
Y363780D01*
X-2464010Y351080D01*
G01Y300280D02*
X-2439750D01*
G01X-2376000D02*
X-2368930Y301340D01*
X-2360840Y304510D01*
X-2355790Y309800D01*
X-2353770Y317210D01*
X-2355790Y324620D01*
X-2361850Y330970D01*
X-2370950Y334150D01*
X-2381050D01*
X-2387120Y336260D01*
X-2392170Y341550D01*
X-2394190Y348960D01*
X-2391160Y356370D01*
X-2384090Y361660D01*
X-2376000Y363780D01*
X-2367920Y361660D01*
X-2360840Y356370D01*
X-2357810Y348960D01*
X-2359830Y341550D01*
X-2364880Y336260D01*
X-2370950Y334150D01*
X-2381050D01*
X-2390150Y330970D01*
X-2396210Y324620D01*
X-2398230Y317210D01*
X-2396210Y309800D01*
X-2391160Y304510D01*
X-2383070Y301340D01*
X-2376000Y300280D01*
G01X-2250520D02*
Y363780D01*
X-2224240Y310860D01*
X-2197960Y363780D01*
Y300280D01*
G01X-2174640D02*
Y363780D01*
X-2148360Y310860D01*
X-2122080Y363780D01*
Y300280D01*
G01X-4750510Y213500D02*
X-4706050Y260070D01*
G01X-4728280Y268540D02*
Y205040D01*
G01X-4706050Y213500D02*
X-4750510Y260070D01*
G01X-4758600Y236790D02*
X-4697960D01*
G01X-4521860Y224080D02*
X-4513780Y218790D01*
X-4504680Y215620D01*
X-4496600D01*
X-4488510Y218790D01*
X-4482450Y224080D01*
X-4479420Y231500D01*
X-4481440Y238900D01*
X-4486490Y245250D01*
X-4495590Y249490D01*
X-4507710Y251600D01*
X-4514790Y255840D01*
X-4517820Y263240D01*
X-4515800Y270650D01*
X-4510750Y275940D01*
X-4503670Y279120D01*
X-4496600D01*
X-4489520Y277000D01*
X-4483460Y271710D01*
G01X-4446990Y279120D02*
Y233610D01*
X-4442950Y224080D01*
X-4434870Y217740D01*
X-4424760Y215620D01*
X-4414650Y217740D01*
X-4406570Y224080D01*
X-4402530Y233610D01*
Y279120D01*
G01X-4369090Y215620D02*
Y279120D01*
X-4343830D01*
X-4335740Y275940D01*
X-4330690Y271710D01*
X-4328670Y263240D01*
X-4330690Y254780D01*
X-4336750Y249490D01*
X-4343830Y246310D01*
X-4369090D01*
G01X-4343830D02*
X-4328670Y215620D01*
G01X-4292200D02*
Y279120D01*
X-4253800D01*
G01X-4267950Y248430D02*
X-4292200D01*
G01X-4222390Y215620D02*
X-4197120Y279120D01*
X-4171850Y215620D01*
G01X-4180950Y237840D02*
X-4213290D01*
G01X-4099010Y273830D02*
X-4105070Y277000D01*
X-4112140Y279120D01*
X-4120230D01*
X-4129330Y275940D01*
X-4136400Y270650D01*
X-4141450Y264300D01*
X-4145500Y253720D01*
X-4146510Y244190D01*
X-4144480Y234670D01*
X-4141450Y228320D01*
X-4135390Y221970D01*
X-4128310Y217740D01*
X-4121240Y215620D01*
X-4114170D01*
X-4107090Y217740D01*
X-4101030Y220910D01*
X-4095970Y225140D01*
G01X-4025150Y215620D02*
X-4065570D01*
Y279120D01*
X-4025150D01*
G01X-4041320Y248430D02*
X-4065570D01*
G01X-3906740Y236790D02*
X-3880460D01*
G01X-3767110Y215620D02*
X-3741840Y279120D01*
X-3716570Y215620D01*
G01X-3725670Y237840D02*
X-3758010D01*
G01X-3678090Y279120D02*
X-3653830D01*
G01X-3665960D02*
Y215620D01*
G01X-3678090D02*
X-3653830D01*
G01X-3610290D02*
Y279120D01*
X-3585030D01*
X-3576940Y275940D01*
X-3571890Y271710D01*
X-3569870Y263240D01*
X-3571890Y254780D01*
X-3577950Y249490D01*
X-3585030Y246310D01*
X-3610290D01*
G01X-3585030D02*
X-3569870Y215620D01*
G01X-3438320Y279120D02*
X-3446410Y277000D01*
X-3452470Y271710D01*
X-3456510Y265360D01*
X-3459540Y256890D01*
X-3460550Y247370D01*
X-3459540Y237840D01*
X-3456510Y229380D01*
X-3452470Y223030D01*
X-3446410Y217740D01*
X-3438320Y215620D01*
X-3430240Y217740D01*
X-3424170Y223030D01*
X-3420130Y229380D01*
X-3417100Y237840D01*
X-3416090Y247370D01*
X-3417100Y256890D01*
X-3420130Y265360D01*
X-3424170Y271710D01*
X-3430240Y277000D01*
X-3438320Y279120D01*
G01X-3312840Y215620D02*
Y279120D01*
X-3286560Y226200D01*
X-3260280Y279120D01*
Y215620D01*
G01X-3236960D02*
Y279120D01*
X-3210680Y226200D01*
X-3184400Y279120D01*
Y215620D01*
G01X-4750510Y2862820D02*
X-4706050Y2909390D01*
G01X-4728280Y2917860D02*
Y2854360D01*
G01X-4706050Y2862820D02*
X-4750510Y2909390D01*
G01X-4758600Y2886110D02*
X-4697960D01*
G01X-4602800Y2864940D02*
Y2928440D01*
X-4576520Y2875520D01*
X-4550240Y2928440D01*
Y2864940D01*
G01X-4480430D02*
X-4520850D01*
Y2928440D01*
X-4480430D01*
G01X-4496600Y2897750D02*
X-4520850D01*
G01X-4402530Y2923150D02*
X-4408590Y2926320D01*
X-4415660Y2928440D01*
X-4423750D01*
X-4432850Y2925260D01*
X-4439920Y2919970D01*
X-4444970Y2913620D01*
X-4449020Y2903040D01*
X-4450030Y2893510D01*
X-4448000Y2883990D01*
X-4444970Y2877640D01*
X-4438910Y2871290D01*
X-4431830Y2867060D01*
X-4424760Y2864940D01*
X-4417690D01*
X-4410610Y2867060D01*
X-4404550Y2870230D01*
X-4399490Y2874460D01*
G01X-4374150Y2864940D02*
X-4348880Y2928440D01*
X-4323610Y2864940D01*
G01X-4332710Y2887160D02*
X-4365050D01*
G01X-4296240Y2864940D02*
Y2928440D01*
X-4249760Y2864940D01*
Y2928440D01*
G01X-4209250D02*
X-4184990D01*
G01X-4197120D02*
Y2864940D01*
G01X-4209250D02*
X-4184990D01*
G01X-4099010Y2923150D02*
X-4105070Y2926320D01*
X-4112140Y2928440D01*
X-4120230D01*
X-4129330Y2925260D01*
X-4136400Y2919970D01*
X-4141450Y2913620D01*
X-4145500Y2903040D01*
X-4146510Y2893510D01*
X-4144480Y2883990D01*
X-4141450Y2877640D01*
X-4135390Y2871290D01*
X-4128310Y2867060D01*
X-4121240Y2864940D01*
X-4114170D01*
X-4107090Y2867060D01*
X-4101030Y2870230D01*
X-4095970Y2874460D01*
G01X-3991710Y2864940D02*
Y2928440D01*
X-3971500D01*
X-3963420Y2925260D01*
X-3957350Y2921030D01*
X-3952300Y2914680D01*
X-3948260Y2907270D01*
X-3947250Y2896690D01*
X-3948260Y2886110D01*
X-3952300Y2878700D01*
X-3957350Y2872350D01*
X-3963420Y2868110D01*
X-3971500Y2864940D01*
X-3991710D01*
G01X-3905730Y2928440D02*
X-3881470D01*
G01X-3893600D02*
Y2864940D01*
G01X-3905730D02*
X-3881470D01*
G01X-3797510D02*
X-3837930D01*
Y2928440D01*
X-3797510D01*
G01X-3813680Y2897750D02*
X-3837930D01*
G01X-3762050Y2928440D02*
Y2864940D01*
X-3721630D01*
G01X-3645750D02*
X-3686170D01*
Y2928440D01*
X-3645750D01*
G01X-3661920Y2897750D02*
X-3686170D01*
G01X-3567850Y2923150D02*
X-3573910Y2926320D01*
X-3580980Y2928440D01*
X-3589070D01*
X-3598170Y2925260D01*
X-3605240Y2919970D01*
X-3610290Y2913620D01*
X-3614340Y2903040D01*
X-3615350Y2893510D01*
X-3613320Y2883990D01*
X-3610290Y2877640D01*
X-3604230Y2871290D01*
X-3597150Y2867060D01*
X-3590080Y2864940D01*
X-3583010D01*
X-3575930Y2867060D01*
X-3569870Y2870230D01*
X-3564810Y2874460D01*
G01X-3514200Y2928440D02*
Y2864940D01*
G01X-3537440Y2928440D02*
X-3490960D01*
G01X-3458530Y2864940D02*
Y2928440D01*
X-3433270D01*
X-3425180Y2925260D01*
X-3420130Y2921030D01*
X-3418110Y2912560D01*
X-3420130Y2904100D01*
X-3426190Y2898810D01*
X-3433270Y2895630D01*
X-3458530D01*
G01X-3433270D02*
X-3418110Y2864940D01*
G01X-3374570Y2928440D02*
X-3350310D01*
G01X-3362440D02*
Y2864940D01*
G01X-3374570D02*
X-3350310D01*
G01X-3264330Y2923150D02*
X-3270390Y2926320D01*
X-3277460Y2928440D01*
X-3285550D01*
X-3294650Y2925260D01*
X-3301720Y2919970D01*
X-3306770Y2913620D01*
X-3310820Y2903040D01*
X-3311830Y2893510D01*
X-3309800Y2883990D01*
X-3306770Y2877640D01*
X-3300710Y2871290D01*
X-3293630Y2867060D01*
X-3286560Y2864940D01*
X-3279490D01*
X-3272410Y2867060D01*
X-3266350Y2870230D01*
X-3261290Y2874460D01*
G01X-3147940Y2886110D02*
X-3121660D01*
G01X-3002240Y2864940D02*
Y2928440D01*
X-2963840D01*
G01X-2977990Y2897750D02*
X-3002240D01*
G01X-2927370Y2864940D02*
Y2928440D01*
X-2902110D01*
X-2894020Y2925260D01*
X-2888970Y2921030D01*
X-2886950Y2912560D01*
X-2888970Y2904100D01*
X-2895030Y2898810D01*
X-2902110Y2895630D01*
X-2927370D01*
G01X-2902110D02*
X-2886950Y2864940D01*
G01X-2844420Y2886110D02*
X-2818140D01*
G01X-2743270Y2864940D02*
Y2928440D01*
X-2780670Y2882930D01*
X-2730130D01*
G01X-2603640Y2864940D02*
Y2928440D01*
X-2615770Y2915740D01*
G01Y2864940D02*
X-2591510D01*
G01X-2527760Y2862820D02*
X-2529780Y2863880D01*
Y2866000D01*
X-2527760Y2867060D01*
X-2525740Y2866000D01*
Y2863880D01*
X-2527760Y2862820D01*
G01X-2471080Y2891400D02*
X-2464010Y2898810D01*
X-2457940Y2903040D01*
X-2449860Y2905160D01*
X-2442780Y2903040D01*
X-2437730Y2898810D01*
X-2433690Y2892460D01*
X-2432680Y2885050D01*
X-2433690Y2878700D01*
X-2437730Y2872350D01*
X-2443800Y2867060D01*
X-2450870Y2864940D01*
X-2458950Y2867060D01*
X-2466030Y2873400D01*
X-2470070Y2882930D01*
X-2471080Y2893510D01*
X-2469060Y2907270D01*
X-2466030Y2914680D01*
X-2460980Y2922090D01*
X-2453900Y2927380D01*
X-2446830Y2928440D01*
X-2439750Y2926320D01*
X-2434700Y2921030D01*
G01X-2326400Y2864940D02*
Y2928440D01*
X-2300120Y2875520D01*
X-2273840Y2928440D01*
Y2864940D01*
G01X-2250520D02*
Y2928440D01*
X-2224240Y2875520D01*
X-2197960Y2928440D01*
Y2864940D01*
G01X-4750510Y5419770D02*
X-4706050Y5466340D01*
G01X-4728280Y5474810D02*
Y5411310D01*
G01X-4706050Y5419770D02*
X-4750510Y5466340D01*
G01X-4758600Y5443060D02*
X-4697960D01*
G01X-4521860Y5430350D02*
X-4513780Y5425060D01*
X-4504680Y5421890D01*
X-4496600D01*
X-4488510Y5425060D01*
X-4482450Y5430350D01*
X-4479420Y5437770D01*
X-4481440Y5445170D01*
X-4486490Y5451520D01*
X-4495590Y5455760D01*
X-4507710Y5457870D01*
X-4514790Y5462110D01*
X-4517820Y5469510D01*
X-4515800Y5476920D01*
X-4510750Y5482210D01*
X-4503670Y5485390D01*
X-4496600D01*
X-4489520Y5483270D01*
X-4483460Y5477980D01*
G01X-4446990Y5485390D02*
Y5439880D01*
X-4442950Y5430350D01*
X-4434870Y5424010D01*
X-4424760Y5421890D01*
X-4414650Y5424010D01*
X-4406570Y5430350D01*
X-4402530Y5439880D01*
Y5485390D01*
G01X-4369090Y5421890D02*
Y5485390D01*
X-4343830D01*
X-4335740Y5482210D01*
X-4330690Y5477980D01*
X-4328670Y5469510D01*
X-4330690Y5461050D01*
X-4336750Y5455760D01*
X-4343830Y5452580D01*
X-4369090D01*
G01X-4343830D02*
X-4328670Y5421890D01*
G01X-4292200D02*
Y5485390D01*
X-4253800D01*
G01X-4267950Y5454700D02*
X-4292200D01*
G01X-4222390Y5421890D02*
X-4197120Y5485390D01*
X-4171850Y5421890D01*
G01X-4180950Y5444110D02*
X-4213290D01*
G01X-4099010Y5480100D02*
X-4105070Y5483270D01*
X-4112140Y5485390D01*
X-4120230D01*
X-4129330Y5482210D01*
X-4136400Y5476920D01*
X-4141450Y5470570D01*
X-4145500Y5459990D01*
X-4146510Y5450460D01*
X-4144480Y5440940D01*
X-4141450Y5434590D01*
X-4135390Y5428240D01*
X-4128310Y5424010D01*
X-4121240Y5421890D01*
X-4114170D01*
X-4107090Y5424010D01*
X-4101030Y5427180D01*
X-4095970Y5431410D01*
G01X-4025150Y5421890D02*
X-4065570D01*
Y5485390D01*
X-4025150D01*
G01X-4041320Y5454700D02*
X-4065570D01*
G01X-3906740Y5443060D02*
X-3880460D01*
G01X-3767110Y5421890D02*
X-3741840Y5485390D01*
X-3716570Y5421890D01*
G01X-3725670Y5444110D02*
X-3758010D01*
G01X-3678090Y5485390D02*
X-3653830D01*
G01X-3665960D02*
Y5421890D01*
G01X-3678090D02*
X-3653830D01*
G01X-3610290D02*
Y5485390D01*
X-3585030D01*
X-3576940Y5482210D01*
X-3571890Y5477980D01*
X-3569870Y5469510D01*
X-3571890Y5461050D01*
X-3577950Y5455760D01*
X-3585030Y5452580D01*
X-3610290D01*
G01X-3585030D02*
X-3569870Y5421890D01*
G01X-3438320Y5485390D02*
X-3446410Y5483270D01*
X-3452470Y5477980D01*
X-3456510Y5471630D01*
X-3459540Y5463160D01*
X-3460550Y5453640D01*
X-3459540Y5444110D01*
X-3456510Y5435650D01*
X-3452470Y5429300D01*
X-3446410Y5424010D01*
X-3438320Y5421890D01*
X-3430240Y5424010D01*
X-3424170Y5429300D01*
X-3420130Y5435650D01*
X-3417100Y5444110D01*
X-3416090Y5453640D01*
X-3417100Y5463160D01*
X-3420130Y5471630D01*
X-3424170Y5477980D01*
X-3430240Y5483270D01*
X-3438320Y5485390D01*
G01X-3312840Y5421890D02*
Y5485390D01*
X-3286560Y5432470D01*
X-3260280Y5485390D01*
Y5421890D01*
G01X-3236960D02*
Y5485390D01*
X-3210680Y5432470D01*
X-3184400Y5485390D01*
Y5421890D01*
G01X-4900250Y5379570D02*
Y5316070D01*
X-4859830D01*
G01X-4804160D02*
Y5379570D01*
X-4816290Y5366870D01*
G01Y5316070D02*
X-4792030D01*
G01X-4652400Y5379570D02*
Y5316070D01*
G01X-4675640Y5379570D02*
X-4629160D01*
G01X-4576520Y5316070D02*
X-4584610Y5317130D01*
X-4591680Y5321360D01*
X-4597740Y5327710D01*
X-4601790Y5335120D01*
X-4603810Y5343590D01*
Y5352050D01*
X-4601790Y5360520D01*
X-4597740Y5367930D01*
X-4591680Y5374280D01*
X-4584610Y5378510D01*
X-4576520Y5379570D01*
X-4568440Y5378510D01*
X-4561360Y5374280D01*
X-4555300Y5367930D01*
X-4551250Y5360520D01*
X-4549230Y5352050D01*
Y5343590D01*
X-4551250Y5335120D01*
X-4555300Y5327710D01*
X-4561360Y5321360D01*
X-4568440Y5317130D01*
X-4576520Y5316070D01*
G01X-4520850D02*
Y5379570D01*
X-4496600D01*
X-4488510Y5376390D01*
X-4482450Y5368990D01*
X-4480430Y5360520D01*
X-4482450Y5352050D01*
X-4487500Y5345700D01*
X-4496600Y5342530D01*
X-4520850D01*
G01X-4326650Y5374280D02*
X-4332710Y5377450D01*
X-4339780Y5379570D01*
X-4347870D01*
X-4356970Y5376390D01*
X-4364040Y5371100D01*
X-4369090Y5364750D01*
X-4373140Y5354170D01*
X-4374150Y5344640D01*
X-4372120Y5335120D01*
X-4369090Y5328770D01*
X-4363030Y5322420D01*
X-4355950Y5318190D01*
X-4348880Y5316070D01*
X-4341810D01*
X-4334730Y5318190D01*
X-4328670Y5321360D01*
X-4323610Y5325590D01*
G01X-4273000Y5316070D02*
X-4281090Y5317130D01*
X-4288160Y5321360D01*
X-4294220Y5327710D01*
X-4298270Y5335120D01*
X-4300290Y5343590D01*
Y5352050D01*
X-4298270Y5360520D01*
X-4294220Y5367930D01*
X-4288160Y5374280D01*
X-4281090Y5378510D01*
X-4273000Y5379570D01*
X-4264920Y5378510D01*
X-4257840Y5374280D01*
X-4251780Y5367930D01*
X-4247730Y5360520D01*
X-4245710Y5352050D01*
Y5343590D01*
X-4247730Y5335120D01*
X-4251780Y5327710D01*
X-4257840Y5321360D01*
X-4264920Y5317130D01*
X-4273000Y5316070D01*
G01X-4220360D02*
Y5379570D01*
X-4173880Y5316070D01*
Y5379570D01*
G01X-4143470Y5316070D02*
Y5379570D01*
X-4123260D01*
X-4115180Y5376390D01*
X-4109110Y5372160D01*
X-4104060Y5365810D01*
X-4100020Y5358400D01*
X-4099010Y5347820D01*
X-4100020Y5337240D01*
X-4104060Y5329830D01*
X-4109110Y5323480D01*
X-4115180Y5319240D01*
X-4123260Y5316070D01*
X-4143470D01*
G01X-4067590Y5379570D02*
Y5334060D01*
X-4063550Y5324530D01*
X-4055470Y5318190D01*
X-4045360Y5316070D01*
X-4035250Y5318190D01*
X-4027170Y5324530D01*
X-4023130Y5334060D01*
Y5379570D01*
G01X-3947250Y5374280D02*
X-3953310Y5377450D01*
X-3960380Y5379570D01*
X-3968470D01*
X-3977570Y5376390D01*
X-3984640Y5371100D01*
X-3989690Y5364750D01*
X-3993740Y5354170D01*
X-3994750Y5344640D01*
X-3992720Y5335120D01*
X-3989690Y5328770D01*
X-3983630Y5322420D01*
X-3976550Y5318190D01*
X-3969480Y5316070D01*
X-3962410D01*
X-3955330Y5318190D01*
X-3949270Y5321360D01*
X-3944210Y5325590D01*
G01X-3893600Y5379570D02*
Y5316070D01*
G01X-3916840Y5379570D02*
X-3870360D01*
G01X-3817720Y5316070D02*
X-3825810Y5317130D01*
X-3832880Y5321360D01*
X-3838940Y5327710D01*
X-3842990Y5335120D01*
X-3845010Y5343590D01*
Y5352050D01*
X-3842990Y5360520D01*
X-3838940Y5367930D01*
X-3832880Y5374280D01*
X-3825810Y5378510D01*
X-3817720Y5379570D01*
X-3809640Y5378510D01*
X-3802560Y5374280D01*
X-3796500Y5367930D01*
X-3792450Y5360520D01*
X-3790430Y5352050D01*
Y5343590D01*
X-3792450Y5335120D01*
X-3796500Y5327710D01*
X-3802560Y5321360D01*
X-3809640Y5317130D01*
X-3817720Y5316070D01*
G01X-3762050D02*
Y5379570D01*
X-3736790D01*
X-3728700Y5376390D01*
X-3723650Y5372160D01*
X-3721630Y5363690D01*
X-3723650Y5355230D01*
X-3729710Y5349940D01*
X-3736790Y5346760D01*
X-3762050D01*
G01X-3736790D02*
X-3721630Y5316070D01*
G01X-3603220Y5337240D02*
X-3576940D01*
G01X-3416090Y5374280D02*
X-3422150Y5377450D01*
X-3429220Y5379570D01*
X-3437310D01*
X-3446410Y5376390D01*
X-3453480Y5371100D01*
X-3458530Y5364750D01*
X-3462580Y5354170D01*
X-3463590Y5344640D01*
X-3461560Y5335120D01*
X-3458530Y5328770D01*
X-3452470Y5322420D01*
X-3445390Y5318190D01*
X-3438320Y5316070D01*
X-3431250D01*
X-3424170Y5318190D01*
X-3418110Y5321360D01*
X-3413050Y5325590D01*
G01X-3362440Y5316070D02*
X-3370530Y5317130D01*
X-3377600Y5321360D01*
X-3383660Y5327710D01*
X-3387710Y5335120D01*
X-3389730Y5343590D01*
Y5352050D01*
X-3387710Y5360520D01*
X-3383660Y5367930D01*
X-3377600Y5374280D01*
X-3370530Y5378510D01*
X-3362440Y5379570D01*
X-3354360Y5378510D01*
X-3347280Y5374280D01*
X-3341220Y5367930D01*
X-3337170Y5360520D01*
X-3335150Y5352050D01*
Y5343590D01*
X-3337170Y5335120D01*
X-3341220Y5327710D01*
X-3347280Y5321360D01*
X-3354360Y5317130D01*
X-3362440Y5316070D01*
G01X-3306770D02*
Y5379570D01*
X-3282520D01*
X-3274430Y5376390D01*
X-3268370Y5368990D01*
X-3266350Y5360520D01*
X-3268370Y5352050D01*
X-3273420Y5345700D01*
X-3282520Y5342530D01*
X-3306770D01*
G01X-3230890Y5316070D02*
Y5379570D01*
X-3206640D01*
X-3198550Y5376390D01*
X-3192490Y5368990D01*
X-3190470Y5360520D01*
X-3192490Y5352050D01*
X-3197540Y5345700D01*
X-3206640Y5342530D01*
X-3230890D01*
G01X-3114590Y5316070D02*
X-3155010D01*
Y5379570D01*
X-3114590D01*
G01X-3130760Y5348880D02*
X-3155010D01*
G01X-3079130Y5316070D02*
Y5379570D01*
X-3053870D01*
X-3045780Y5376390D01*
X-3040730Y5372160D01*
X-3038710Y5363690D01*
X-3040730Y5355230D01*
X-3046790Y5349940D01*
X-3053870Y5346760D01*
X-3079130D01*
G01X-3053870D02*
X-3038710Y5316070D01*
G01X-2907160Y5379570D02*
X-2915250Y5377450D01*
X-2921310Y5372160D01*
X-2925350Y5365810D01*
X-2928380Y5357340D01*
X-2929390Y5347820D01*
X-2928380Y5338290D01*
X-2925350Y5329830D01*
X-2921310Y5323480D01*
X-2915250Y5318190D01*
X-2907160Y5316070D01*
X-2899080Y5318190D01*
X-2893010Y5323480D01*
X-2888970Y5329830D01*
X-2885940Y5338290D01*
X-2884930Y5347820D01*
X-2885940Y5357340D01*
X-2888970Y5365810D01*
X-2893010Y5372160D01*
X-2899080Y5377450D01*
X-2907160Y5379570D01*
G01X-2831280Y5313950D02*
X-2833300Y5315010D01*
Y5317130D01*
X-2831280Y5318190D01*
X-2829260Y5317130D01*
Y5315010D01*
X-2831280Y5313950D01*
G01X-2755400Y5379570D02*
X-2763490Y5377450D01*
X-2769550Y5372160D01*
X-2773590Y5365810D01*
X-2776620Y5357340D01*
X-2777630Y5347820D01*
X-2776620Y5338290D01*
X-2773590Y5329830D01*
X-2769550Y5323480D01*
X-2763490Y5318190D01*
X-2755400Y5316070D01*
X-2747320Y5318190D01*
X-2741250Y5323480D01*
X-2737210Y5329830D01*
X-2734180Y5338290D01*
X-2733170Y5347820D01*
X-2734180Y5357340D01*
X-2737210Y5365810D01*
X-2741250Y5372160D01*
X-2747320Y5377450D01*
X-2755400Y5379570D01*
G01X-2679520Y5316070D02*
Y5379570D01*
X-2691650Y5366870D01*
G01Y5316070D02*
X-2667390D01*
G01X-2603640D02*
X-2596570Y5317130D01*
X-2588480Y5320300D01*
X-2583430Y5325590D01*
X-2581410Y5333000D01*
X-2583430Y5340410D01*
X-2589490Y5346760D01*
X-2598590Y5349940D01*
X-2608690D01*
X-2614760Y5352050D01*
X-2619810Y5357340D01*
X-2621830Y5364750D01*
X-2618800Y5372160D01*
X-2611730Y5377450D01*
X-2603640Y5379570D01*
X-2595560Y5377450D01*
X-2588480Y5372160D01*
X-2585450Y5364750D01*
X-2587470Y5357340D01*
X-2592520Y5352050D01*
X-2598590Y5349940D01*
X-2608690D01*
X-2617790Y5346760D01*
X-2623850Y5340410D01*
X-2625870Y5333000D01*
X-2623850Y5325590D01*
X-2618800Y5320300D01*
X-2610710Y5317130D01*
X-2603640Y5316070D01*
G01X-2478160D02*
Y5379570D01*
X-2451880Y5326650D01*
X-2425600Y5379570D01*
Y5316070D01*
G01X-2402280D02*
Y5379570D01*
X-2376000Y5326650D01*
X-2349720Y5379570D01*
Y5316070D01*
G01X-6510240Y384940D02*
Y5344940D01*
X-4986240D01*
Y384940D01*
X-6510240D01*
G01X-5000Y-3005000D02*
Y-450000D01*
X12593400D01*
Y-3005000D01*
X-5000D01*
G01X274520Y-2211250D02*
Y-1893750D01*
X424140D01*
G01X369010Y-2047200D02*
X274520D01*
G01X617050Y-1893750D02*
X711530D01*
G01X664290D02*
Y-2211250D01*
G01X617050D02*
X711530D01*
G01X1002870Y-2052500D02*
X1081620D01*
Y-2147750D01*
X1057990Y-2179510D01*
X1030430Y-2200670D01*
X991060Y-2211250D01*
X951690Y-2200670D01*
X924130Y-2179510D01*
X900510Y-2147750D01*
X884760Y-2110710D01*
X876880Y-2068380D01*
Y-2031330D01*
X884760Y-1999590D01*
X900510Y-1962540D01*
X924130Y-1930790D01*
X947750Y-1909630D01*
X979250Y-1893750D01*
X1006810D01*
X1038300Y-1904330D01*
X1061930Y-1925500D01*
G01X1207600Y-1893750D02*
Y-2121290D01*
X1223340Y-2168930D01*
X1254840Y-2200670D01*
X1294210Y-2211250D01*
X1333580Y-2200670D01*
X1365080Y-2168930D01*
X1380820Y-2121290D01*
Y-1893750D01*
G01X1530430Y-2211250D02*
Y-1893750D01*
X1628850D01*
X1660350Y-1909630D01*
X1680040Y-1930790D01*
X1687910Y-1973130D01*
X1680040Y-2015460D01*
X1656410Y-2041910D01*
X1628850Y-2057800D01*
X1530430D01*
G01X1628850D02*
X1687910Y-2211250D01*
G01X2002870D02*
X1845390D01*
Y-1893750D01*
X2002870D01*
G01X1939880Y-2047200D02*
X1845390D01*
G01X-5000Y-2370000D02*
X12593400D01*
G01X-5000Y-1100000D02*
X12593400D01*
G01X-5000Y-1735000D02*
X12593400D01*
G01X2278460D02*
Y-3005000D01*
G01X2270590Y-926250D02*
Y-608750D01*
X2349320D01*
X2380820Y-624630D01*
X2404440Y-645790D01*
X2424130Y-677540D01*
X2439880Y-714590D01*
X2443810Y-767500D01*
X2439880Y-820420D01*
X2424130Y-857460D01*
X2404440Y-889220D01*
X2380820Y-910380D01*
X2349320Y-926250D01*
X2270590D01*
G01X2593420D02*
Y-608750D01*
X2691840D01*
X2723340Y-624630D01*
X2743030Y-645790D01*
X2750900Y-688130D01*
X2743030Y-730460D01*
X2719400Y-756910D01*
X2691840Y-772800D01*
X2593420D01*
G01X2691840D02*
X2750900Y-926250D01*
G01X2939880Y-608750D02*
X3034360D01*
G01X2987120D02*
Y-926250D01*
G01X2939880D02*
X3034360D01*
G01X3223340Y-608750D02*
Y-926250D01*
X3380820D01*
G01X3538300Y-608750D02*
Y-926250D01*
X3695780D01*
G01X4333570Y-635210D02*
X4309950Y-619330D01*
X4282400Y-608750D01*
X4250900D01*
X4215460Y-624630D01*
X4187910Y-651080D01*
X4168220Y-682840D01*
X4152470Y-735750D01*
X4148530Y-783380D01*
X4156410Y-831000D01*
X4168220Y-862750D01*
X4191840Y-894510D01*
X4219400Y-915670D01*
X4246960Y-926250D01*
X4274520D01*
X4302080Y-915670D01*
X4325700Y-899800D01*
X4345390Y-878640D01*
G01X4479240Y-926250D02*
Y-608750D01*
G01X4644600D02*
Y-926250D01*
G01Y-767500D02*
X4479240D01*
G01X4778450Y-926250D02*
X4876880Y-608750D01*
X4975310Y-926250D01*
G01X4939870Y-815130D02*
X4813880D01*
G01X5113100Y-926250D02*
Y-608750D01*
X5211520D01*
X5243020Y-624630D01*
X5262710Y-645790D01*
X5270580Y-688130D01*
X5262710Y-730460D01*
X5239080Y-756910D01*
X5211520Y-772800D01*
X5113100D01*
G01X5211520D02*
X5270580Y-926250D01*
G01X5506800Y-608750D02*
Y-926250D01*
G01X5416250Y-608750D02*
X5597350D01*
G01X5821760Y-936830D02*
X5813880Y-931540D01*
Y-920960D01*
X5821760Y-915670D01*
X5829640Y-920960D01*
Y-931540D01*
X5821760Y-936830D01*
G01Y-793970D02*
X5813880Y-788670D01*
Y-778090D01*
X5821760Y-772800D01*
X5829640Y-778090D01*
Y-788670D01*
X5821760Y-793970D01*
G01X6451680Y-608750D02*
Y-926250D01*
G01X6361130Y-608750D02*
X6542230D01*
G01X6766640Y-926250D02*
X6735140Y-920960D01*
X6707590Y-899800D01*
X6683960Y-868040D01*
X6668210Y-831000D01*
X6660340Y-788670D01*
Y-746330D01*
X6668210Y-704000D01*
X6683960Y-666960D01*
X6707590Y-635210D01*
X6735140Y-614040D01*
X6766640Y-608750D01*
X6798130Y-614040D01*
X6825690Y-635210D01*
X6849320Y-666960D01*
X6865070Y-704000D01*
X6872940Y-746330D01*
Y-788670D01*
X6865070Y-831000D01*
X6849320Y-868040D01*
X6825690Y-899800D01*
X6798130Y-920960D01*
X6766640Y-926250D01*
G01X7002860D02*
Y-608750D01*
X7097350D01*
X7128840Y-624630D01*
X7152470Y-661670D01*
X7160340Y-704000D01*
X7152470Y-746330D01*
X7132780Y-778090D01*
X7097350Y-793970D01*
X7002860D01*
G01X7711520Y-608750D02*
Y-926250D01*
G01X7656400Y-714590D02*
X7766640D01*
G01X8026480Y-926250D02*
X8002860Y-920960D01*
X7979240Y-899800D01*
X7963480Y-862750D01*
X7955610Y-820420D01*
X7963480Y-778090D01*
X7979240Y-741040D01*
X8002860Y-719880D01*
X8026480Y-714590D01*
X8050100Y-719880D01*
X8073720Y-741040D01*
X8089470Y-778090D01*
X8093410Y-820420D01*
X8089470Y-862750D01*
X8073720Y-899800D01*
X8050100Y-920960D01*
X8026480Y-926250D01*
G01X8687890Y-756910D02*
X8703640Y-741040D01*
X8715450Y-714590D01*
X8723330Y-677540D01*
X8715450Y-645790D01*
X8699710Y-624630D01*
X8672150Y-608750D01*
X8565850D01*
Y-926250D01*
X8695770D01*
X8723330Y-905090D01*
X8739080Y-873330D01*
X8746950Y-836290D01*
X8739080Y-799260D01*
X8715450Y-767500D01*
X8687890Y-756910D01*
X8565850D01*
G01X8971360Y-926250D02*
X8939860Y-920960D01*
X8912310Y-899800D01*
X8888680Y-868040D01*
X8872930Y-831000D01*
X8865060Y-788670D01*
Y-746330D01*
X8872930Y-704000D01*
X8888680Y-666960D01*
X8912310Y-635210D01*
X8939860Y-614040D01*
X8971360Y-608750D01*
X9002850Y-614040D01*
X9030410Y-635210D01*
X9054040Y-666960D01*
X9069790Y-704000D01*
X9077660Y-746330D01*
Y-788670D01*
X9069790Y-831000D01*
X9054040Y-868040D01*
X9030410Y-899800D01*
X9002850Y-920960D01*
X8971360Y-926250D01*
G01X9286320Y-608750D02*
Y-926250D01*
G01X9195770Y-608750D02*
X9376870D01*
G01X9601280D02*
Y-926250D01*
G01X9510730Y-608750D02*
X9691830D01*
G01X9916240Y-926250D02*
X9884740Y-920960D01*
X9857190Y-899800D01*
X9833560Y-868040D01*
X9817810Y-831000D01*
X9809940Y-788670D01*
Y-746330D01*
X9817810Y-704000D01*
X9833560Y-666960D01*
X9857190Y-635210D01*
X9884740Y-614040D01*
X9916240Y-608750D01*
X9947730Y-614040D01*
X9975290Y-635210D01*
X9998920Y-666960D01*
X10014670Y-704000D01*
X10022540Y-746330D01*
Y-788670D01*
X10014670Y-831000D01*
X9998920Y-868040D01*
X9975290Y-899800D01*
X9947730Y-920960D01*
X9916240Y-926250D01*
G01X10128830D02*
Y-608750D01*
X10231200Y-873330D01*
X10333570Y-608750D01*
Y-926250D01*
G01X1943810Y-1576250D02*
X2042240Y-1258750D01*
X2140670Y-1576250D01*
G01X2105230Y-1465130D02*
X1979240D01*
G01X2278460Y-1258750D02*
Y-1576250D01*
X2435940D01*
G01X2593420Y-1258750D02*
Y-1576250D01*
X2750900D01*
G01X3215470Y-1258750D02*
Y-1486290D01*
X3231210Y-1533930D01*
X3262710Y-1565670D01*
X3302080Y-1576250D01*
X3341450Y-1565670D01*
X3372950Y-1533930D01*
X3388690Y-1486290D01*
Y-1258750D01*
G01X3526490Y-1576250D02*
Y-1258750D01*
X3707590Y-1576250D01*
Y-1258750D01*
G01X3884760D02*
X3979240D01*
G01X3932000D02*
Y-1576250D01*
G01X3884760D02*
X3979240D01*
G01X4246960Y-1258750D02*
Y-1576250D01*
G01X4156410Y-1258750D02*
X4337510D01*
G01X4479240Y-1533930D02*
X4510740Y-1560380D01*
X4546170Y-1576250D01*
X4577670D01*
X4609160Y-1560380D01*
X4632790Y-1533930D01*
X4644600Y-1496870D01*
X4636730Y-1459840D01*
X4617040Y-1428090D01*
X4581600Y-1406910D01*
X4534360Y-1396330D01*
X4506800Y-1375170D01*
X4494990Y-1338130D01*
X4502870Y-1301080D01*
X4522550Y-1274630D01*
X4550110Y-1258750D01*
X4577670D01*
X4605230Y-1269330D01*
X4628850Y-1295790D01*
G01X5093410Y-1576250D02*
X5191840Y-1258750D01*
X5290270Y-1576250D01*
G01X5254830Y-1465130D02*
X5128840D01*
G01X5428060Y-1576250D02*
Y-1258750D01*
X5526480D01*
X5557980Y-1274630D01*
X5577670Y-1295790D01*
X5585540Y-1338130D01*
X5577670Y-1380460D01*
X5554040Y-1406910D01*
X5526480Y-1422800D01*
X5428060D01*
G01X5526480D02*
X5585540Y-1576250D01*
G01X5900500D02*
X5743020D01*
Y-1258750D01*
X5900500D01*
G01X5837510Y-1412200D02*
X5743020D01*
G01X6404440Y-1258750D02*
X6498920D01*
G01X6451680D02*
Y-1576250D01*
G01X6404440D02*
X6498920D01*
G01X6676090D02*
Y-1258750D01*
X6857190Y-1576250D01*
Y-1258750D01*
G01X7294190Y-1576250D02*
Y-1258750D01*
X7396560Y-1523330D01*
X7498930Y-1258750D01*
Y-1576250D01*
G01X7664280Y-1258750D02*
X7758760D01*
G01X7711520D02*
Y-1576250D01*
G01X7664280D02*
X7758760D01*
G01X7947740Y-1258750D02*
Y-1576250D01*
X8105220D01*
G01X8262700Y-1258750D02*
Y-1576250D01*
X8420180D01*
G01X8609160Y-1258750D02*
X8703640D01*
G01X8656400D02*
Y-1576250D01*
G01X8609160D02*
X8703640D01*
G01X8868990D02*
Y-1258750D01*
X8971360Y-1523330D01*
X9073730Y-1258750D01*
Y-1576250D01*
G01X9365060D02*
X9207580D01*
Y-1258750D01*
X9365060D01*
G01X9302070Y-1412200D02*
X9207580D01*
G01X9601280Y-1258750D02*
Y-1576250D01*
G01X9510730Y-1258750D02*
X9691830D01*
G01X9994980Y-1576250D02*
X9837500D01*
Y-1258750D01*
X9994980D01*
G01X9931990Y-1412200D02*
X9837500D01*
G01X10152460Y-1576250D02*
Y-1258750D01*
X10250880D01*
X10282380Y-1274630D01*
X10302070Y-1295790D01*
X10309940Y-1338130D01*
X10302070Y-1380460D01*
X10278440Y-1406910D01*
X10250880Y-1422800D01*
X10152460D01*
G01X10250880D02*
X10309940Y-1576250D01*
G01X10463480Y-1533930D02*
X10494980Y-1560380D01*
X10530410Y-1576250D01*
X10561910D01*
X10593400Y-1560380D01*
X10617030Y-1533930D01*
X10628840Y-1496870D01*
X10620970Y-1459840D01*
X10601280Y-1428090D01*
X10565840Y-1406910D01*
X10518600Y-1396330D01*
X10491040Y-1375170D01*
X10479230Y-1338130D01*
X10487110Y-1301080D01*
X10506790Y-1274630D01*
X10534350Y-1258750D01*
X10561910D01*
X10589470Y-1269330D01*
X10613090Y-1295790D01*
G01X2872940Y-2211250D02*
Y-1893750D01*
X3022560D01*
G01X2967430Y-2047200D02*
X2872940D01*
G01X3215470Y-1893750D02*
X3309950D01*
G01X3262710D02*
Y-2211250D01*
G01X3215470D02*
X3309950D01*
G01X3487120D02*
Y-1893750D01*
X3668220Y-2211250D01*
Y-1893750D01*
G01X3845390D02*
X3939870D01*
G01X3892630D02*
Y-2211250D01*
G01X3845390D02*
X3939870D01*
G01X4124910Y-2168930D02*
X4156410Y-2195380D01*
X4191840Y-2211250D01*
X4223340D01*
X4254830Y-2195380D01*
X4278460Y-2168930D01*
X4290270Y-2131870D01*
X4282400Y-2094840D01*
X4262710Y-2063090D01*
X4227270Y-2041910D01*
X4180030Y-2031330D01*
X4152470Y-2010170D01*
X4140660Y-1973130D01*
X4148540Y-1936080D01*
X4168220Y-1909630D01*
X4195780Y-1893750D01*
X4223340D01*
X4250900Y-1904330D01*
X4274520Y-1930790D01*
G01X4439870Y-2211250D02*
Y-1893750D01*
G01X4605230D02*
Y-2211250D01*
G01Y-2052500D02*
X4439870D01*
G01X4916250Y-2211250D02*
X4758770D01*
Y-1893750D01*
X4916250D01*
G01X4853260Y-2047200D02*
X4758770D01*
G01X5065860Y-2211250D02*
Y-1893750D01*
X5144590D01*
X5176090Y-1909630D01*
X5199710Y-1930790D01*
X5219400Y-1962540D01*
X5235150Y-1999590D01*
X5239080Y-2052500D01*
X5235150Y-2105420D01*
X5219400Y-2142460D01*
X5199710Y-2174220D01*
X5176090Y-2195380D01*
X5144590Y-2211250D01*
X5065860D01*
G01X5349320Y-2317080D02*
X5585540D01*
G01X5699710Y-2168930D02*
X5731210Y-2195380D01*
X5766640Y-2211250D01*
X5798140D01*
X5829630Y-2195380D01*
X5853260Y-2168930D01*
X5865070Y-2131870D01*
X5857200Y-2094840D01*
X5837510Y-2063090D01*
X5802070Y-2041910D01*
X5754830Y-2031330D01*
X5727270Y-2010170D01*
X5715460Y-1973130D01*
X5723340Y-1936080D01*
X5743020Y-1909630D01*
X5770580Y-1893750D01*
X5798140D01*
X5825700Y-1904330D01*
X5849320Y-1930790D01*
G01X6050110Y-1893750D02*
X6144590D01*
G01X6097350D02*
Y-2211250D01*
G01X6050110D02*
X6144590D01*
G01X6337500Y-1893750D02*
X6487120D01*
X6337500Y-2211250D01*
X6487120D01*
G01X6806010D02*
X6648530D01*
Y-1893750D01*
X6806010D01*
G01X6743020Y-2047200D02*
X6648530D01*
G01X4522550Y-2528750D02*
X4491050Y-2539330D01*
X4467430Y-2565790D01*
X4451680Y-2597540D01*
X4439870Y-2639880D01*
X4435940Y-2687500D01*
X4439870Y-2735130D01*
X4451680Y-2777460D01*
X4467430Y-2809220D01*
X4491050Y-2835670D01*
X4522550Y-2846250D01*
X4554040Y-2835670D01*
X4577670Y-2809220D01*
X4593420Y-2777460D01*
X4605230Y-2735130D01*
X4609160Y-2687500D01*
X4605230Y-2639880D01*
X4593420Y-2597540D01*
X4577670Y-2565790D01*
X4554040Y-2539330D01*
X4522550Y-2528750D01*
G01X4837510Y-2856830D02*
X4829630Y-2851540D01*
Y-2840960D01*
X4837510Y-2835670D01*
X4845390Y-2840960D01*
Y-2851540D01*
X4837510Y-2856830D01*
G01X5199710Y-2846250D02*
Y-2528750D01*
X5054040Y-2756290D01*
X5250900D01*
G01X7396560Y-1735000D02*
Y-3005000D01*
G01X8144590Y-2846250D02*
Y-2528750D01*
X8239080D01*
X8270570Y-2544630D01*
X8294200Y-2581670D01*
X8302070Y-2624000D01*
X8294200Y-2666330D01*
X8274510Y-2698090D01*
X8239080Y-2713970D01*
X8144590D01*
G01X8459550Y-2528750D02*
Y-2846250D01*
X8617030D01*
G01X8754820D02*
X8853250Y-2528750D01*
X8951680Y-2846250D01*
G01X8916240Y-2735130D02*
X8790250D01*
G01X9168210Y-2528750D02*
Y-2846250D01*
G01X9077660Y-2528750D02*
X9258760D01*
G01X9561910Y-2846250D02*
X9404430D01*
Y-2528750D01*
X9561910D01*
G01X9498920Y-2682200D02*
X9404430D01*
G01X9711520Y-2846250D02*
Y-2528750D01*
X9790250D01*
X9821750Y-2544630D01*
X9845370Y-2565790D01*
X9865060Y-2597540D01*
X9880810Y-2634590D01*
X9884740Y-2687500D01*
X9880810Y-2740420D01*
X9865060Y-2777460D01*
X9845370Y-2809220D01*
X9821750Y-2830380D01*
X9790250Y-2846250D01*
X9711520D01*
G01X8144590Y-2211250D02*
Y-1893750D01*
X8239080D01*
X8270570Y-1909630D01*
X8294200Y-1946670D01*
X8302070Y-1989000D01*
X8294200Y-2031330D01*
X8274510Y-2063090D01*
X8239080Y-2078970D01*
X8144590D01*
G01X8459550Y-1893750D02*
Y-2211250D01*
X8617030D01*
G01X8754820D02*
X8853250Y-1893750D01*
X8951680Y-2211250D01*
G01X8916240Y-2100130D02*
X8790250D01*
G01X9168210Y-1893750D02*
Y-2211250D01*
G01X9077660Y-1893750D02*
X9258760D01*
G01X9561910Y-2211250D02*
X9404430D01*
Y-1893750D01*
X9561910D01*
G01X9498920Y-2047200D02*
X9404430D01*
G01X9711520Y-2211250D02*
Y-1893750D01*
X9790250D01*
X9821750Y-1909630D01*
X9845370Y-1930790D01*
X9865060Y-1962540D01*
X9880810Y-1999590D01*
X9884740Y-2052500D01*
X9880810Y-2105420D01*
X9865060Y-2142460D01*
X9845370Y-2174220D01*
X9821750Y-2195380D01*
X9790250Y-2211250D01*
X9711520D01*
G01X10624900Y-1735000D02*
Y-3005000D01*
G01X11376860Y-2581670D02*
X11400490Y-2549920D01*
X11428050Y-2534040D01*
X11459550Y-2528750D01*
X11498910Y-2539330D01*
X11526480Y-2565790D01*
X11534350Y-2597540D01*
X11530410Y-2629300D01*
X11514660Y-2655750D01*
X11435920Y-2708670D01*
X11400490Y-2745710D01*
X11376860Y-2798640D01*
X11368990Y-2846250D01*
X11534350D01*
G01X11766630D02*
Y-2528750D01*
X11719390Y-2592250D01*
G01Y-2846250D02*
X11813870D01*
G01X11294190Y-2211250D02*
X11262690Y-2205960D01*
X11235140Y-2184800D01*
X11211510Y-2153040D01*
X11195760Y-2116000D01*
X11187890Y-2073670D01*
Y-2031330D01*
X11195760Y-1989000D01*
X11211510Y-1951960D01*
X11235140Y-1920210D01*
X11262690Y-1899040D01*
X11294190Y-1893750D01*
X11325680Y-1899040D01*
X11353240Y-1920210D01*
X11376870Y-1951960D01*
X11392620Y-1989000D01*
X11400490Y-2031330D01*
Y-2073670D01*
X11392620Y-2116000D01*
X11376870Y-2153040D01*
X11353240Y-2184800D01*
X11325680Y-2205960D01*
X11294190Y-2211250D01*
G01X11325680Y-2126580D02*
X11372930Y-2211250D01*
G01X11609150Y-1893750D02*
Y-2211250D01*
G01X11518600Y-1893750D02*
X11699700D01*
G01X11924110Y-2211250D02*
Y-2068380D01*
X11845370Y-1893750D01*
G01X12002850D02*
X11924110Y-2068380D01*
M02*
