G04 ================== begin FILE IDENTIFICATION RECORD ==================*
G04 Layout Name:  SCHEMA_CU_CONECTORI.brd*
G04 Film Name:    SMTOP*
G04 File Format:  Gerber RS274X*
G04 File Origin:  Cadence Allegro 17.2-S025*
G04 Origin Date:  Sun Dec 15 17:23:26 2024*
G04 *
G04 Layer:  VIA CLASS/SOLDERMASK_TOP*
G04 Layer:  PIN/SOLDERMASK_TOP*
G04 Layer:  PACKAGE GEOMETRY/SOLDERMASK_TOP*
G04 Layer:  DRC ERROR CLASS/SOLDERMASK_TOP*
G04 Layer:  BOARD GEOMETRY/SOLDERMASK_TOP*
G04 *
G04 Offset:    (0.0000 0.0000)*
G04 Mirror:    No*
G04 Mode:      Positive*
G04 Rotation:  0*
G04 FullContactRelief:  No*
G04 UndefLineWidth:     0.1000*
G04 ================== end FILE IDENTIFICATION RECORD ====================*
%FSLAX25Y25*MOMM*%
%IR0*IPPOS*OFA0.00000B0.00000*MIA0B0*SFA1.00000B1.00000*%
%ADD12C,.8*%
%ADD11R,2.1001X1.4*%
%ADD20R,1.4X2.1001*%
%ADD18C,1.2*%
%ADD13R,1.1501X1.65*%
%ADD19R,1.65X1.1501*%
%ADD14R,1.4X1.4*%
%ADD16R,1.1684X1.524*%
%ADD17R,1.524X1.1684*%
%ADD10R,1.9304X3.048*%
%ADD15R,1.1999X1.1501*%
%LPD*%
G75*
G54D10*
X333000Y412000D03*
X268000Y3678000D03*
X932440Y412000D03*
X867440Y3678000D03*
X1603560Y354000D03*
X2203000D03*
G54D20*
X3398000Y989000D03*
G54D11*
X470000Y1116000D03*
G54D12*
X333000Y829000D03*
X298000Y2251000D03*
X783000Y2316000D03*
Y2546000D03*
X1061000Y2172000D03*
X908000Y2761000D03*
X1302000Y354000D03*
X1335000Y764000D03*
X1586000D03*
X1889140Y1472860D03*
X1530000Y2218000D03*
X1418000Y2855000D03*
X1912000D03*
X1526000Y2712300D03*
X2038000Y1664000D03*
X2395750Y1636750D03*
X2621750D03*
X2638000Y1421000D03*
X2306000Y2993000D03*
X3194000Y2359000D03*
X3345260Y2888260D03*
G54D13*
X303000Y2043000D03*
X301000Y2737000D03*
Y2994000D03*
X1108000Y1354000D03*
X503000Y2043000D03*
X501000Y2737000D03*
Y2994000D03*
X1308000Y1354000D03*
X1785000Y822000D03*
X1985000D03*
X3392000Y2100000D03*
X3192000D03*
X3353000Y2549000D03*
X3553000D03*
G54D14*
X355000Y1681000D03*
X585000D03*
X2833000Y1104000D03*
Y874000D03*
G54D15*
X316000Y2423000D03*
X496000D03*
G54D16*
X1194860Y810260D03*
X1090720Y1016000D03*
X1299000D03*
X1889140Y1322740D03*
X1785000Y1117000D03*
X1993280D03*
X2385860Y2446260D03*
X2490000Y2652000D03*
X2281720D03*
X2385860Y3375260D03*
X2490000Y3581000D03*
X2281720D03*
G54D17*
X1128000Y2011000D03*
Y1802720D03*
X1103260Y2526140D03*
X1090260Y3135140D03*
X1901740Y1906860D03*
X1696000Y2011000D03*
Y1802720D03*
X1333740Y1906860D03*
X1908740Y2529860D03*
X1703000Y2634000D03*
Y2425720D03*
X1309000Y2422000D03*
Y2630280D03*
X1667260Y3122140D03*
X1873000Y3018000D03*
Y3226280D03*
X1296000Y3031000D03*
Y3239280D03*
X2428740Y1895860D03*
X2223000Y2000000D03*
Y1791720D03*
X3052740Y2551860D03*
X2847000Y2656000D03*
Y2447720D03*
X3345260Y3636140D03*
X3551000Y3532000D03*
Y3740280D03*
G54D18*
X499000Y3311000D03*
X3506000Y501000D03*
G54D19*
X1443000Y3535000D03*
X1871000Y3527000D03*
X1443000Y3735000D03*
X1871000Y3727000D03*
X2436000Y1122000D03*
Y1322000D03*
X2842000Y2028000D03*
Y1828000D03*
X3401000Y1498000D03*
Y1698000D03*
M02*
